<?xml version="1.0" encoding="utf-8"?>
<!-- Generator: Adobe Illustrator 25.0.1, SVG Export Plug-In . SVG Version: 6.00 Build 0)  -->
<svg version="1.1" id="Layer_1" xmlns="http://www.w3.org/2000/svg" xmlns:xlink="http://www.w3.org/1999/xlink" x="0px" y="0px"
	 viewBox="0 0 312.9 62.6" style="enable-background:new 0 0 312.9 62.6;" xml:space="preserve">
<style type="text/css">
	.st0{fill:#0B1D37;}
	.st1{fill:url(#SVGID_1_);}
	.st2{fill:url(#SVGID_2_);}
	.st3{fill:url(#SVGID_3_);}
	.st4{fill:url(#SVGID_4_);}
	.st5{fill:url(#SVGID_5_);}
	.st6{fill:url(#SVGID_6_);}
	.st7{fill:url(#SVGID_7_);}
	.st8{fill:url(#SVGID_8_);}
	.st9{fill:url(#SVGID_9_);}
</style>
<g>
	<g>
		<path class="st0" d="M84.1,8.7c2.4,0,4.8,0.4,6.4,1l-1.3,4.5c-1-0.5-2.8-0.8-4.4-0.8c-4.2,0-6.5,1.5-7.2,4.7
			c-0.6,3.2,1.2,4.8,5.4,4.8c1.5,0,3.4-0.3,4.8-0.8l-0.4,4.6c-1.9,0.7-4.4,1-6.9,1c-7.6,0-11.3-3.5-10.1-9.5
			C71.5,12.2,76.5,8.7,84.1,8.7z"/>
		<path class="st0" d="M99.2,27.6c-7.3,0-10.2-3.9-9.1-9.4c1.1-5.5,5.5-9.4,12.8-9.4c7.4,0,10.2,3.9,9.2,9.4
			C111,23.7,106.6,27.6,99.2,27.6z M100.1,23.1c2.6,0,4.1-1.6,4.7-4.9c0.6-3.3-0.2-4.9-2.8-4.9c-2.6,0-4.1,1.6-4.7,4.9
			C96.7,21.5,97.5,23.1,100.1,23.1z"/>
		<path class="st0" d="M120.7,17.1l-2,10.2h-6.1L116.2,9h7.8l5.3,10.2l2-10.2h6.1l-3.5,18.2H126L120.7,17.1z"/>
		<path class="st0" d="M143.9,13.7h-5.7l0.9-4.7h18.5l-0.9,4.7h-5.7l-2.6,13.5h-7.2L143.9,13.7z"/>
		<path class="st0" d="M166.8,9l-3.5,18.2h-7.2L159.6,9H166.8z"/>
		<path class="st0" d="M174.6,17.1l-2,10.2h-6.1L170.1,9h7.8l5.3,10.2l2-10.2h6.1l-3.5,18.2h-7.8L174.6,17.1z"/>
		<path class="st0" d="M192.3,19.5l2-10.4h7.2l-2.1,10.6c-0.4,2.3,0.4,3.2,2.5,3.2c2.1,0,3.3-0.9,3.7-3.2L207.8,9h7.2l-2,10.4
			c-1.1,5.4-5.6,8.1-11.9,8.1C194.7,27.6,191.3,24.9,192.3,19.5z"/>
		<path class="st0" d="M224.8,27.6c-7.3,0-10.2-3.9-9.1-9.4c1.1-5.5,5.5-9.4,12.8-9.4c7.4,0,10.2,3.9,9.2,9.4
			C236.5,23.7,232.1,27.6,224.8,27.6z M225.6,23.1c2.6,0,4.1-1.6,4.7-4.9c0.6-3.3-0.2-4.9-2.8-4.9c-2.6,0-4.1,1.6-4.7,4.9
			C222.2,21.5,223.1,23.1,225.6,23.1z"/>
		<path class="st0" d="M239.7,19.5l2-10.4h7.2l-2.1,10.6c-0.4,2.3,0.4,3.2,2.5,3.2c2.1,0,3.3-0.9,3.7-3.2L255.2,9h7.2l-2,10.4
			c-1.1,5.4-5.6,8.1-11.9,8.1C242.1,27.6,238.6,24.9,239.7,19.5z"/>
		<path class="st0" d="M273.8,8.7c2.7,0,5.3,0.3,7.2,0.9l-1.4,4.7c-1.2-0.5-3.5-0.9-5.5-0.9c-2.3,0-2.8,0.3-3,0.8
			c-0.1,0.5,0.4,0.8,4.3,1.9c3.5,1,5,2.6,4.4,5.6c-0.8,3.8-3.8,5.8-10.5,5.8c-2.9,0-5.7-0.4-7.7-1.1l1.4-4.8c1.8,0.8,4,1.2,6.4,1.2
			c2.6,0,3-0.3,3.1-0.9c0.1-0.5-0.5-0.8-4.2-1.8c-3.6-0.9-5-2.7-4.4-5.7C264.6,10.7,267.7,8.7,273.8,8.7z"/>
		<path class="st0" d="M77.9,36.2h10.2l3,18.2h-7.6l-0.3-3.1h-6.3l-1.5,3.1h-7.6L77.9,36.2z M79.2,46.6h3.6l-0.6-6.1L79.2,46.6z"/>
		<path class="st0" d="M107.6,47.8l5.4,6.7h-8l-4.3-6l-1.2,6h-6.9l3.5-18.2h8.9c5.9,0,9.2,1.8,8.4,6
			C112.9,45.2,110.8,46.9,107.6,47.8z M104.2,40.4h-2l-0.7,3.8h2c1.5,0,2.8-0.5,3-1.9C106.8,40.9,105.7,40.4,104.2,40.4z"/>
		<path class="st0" d="M129.1,35.9c2.4,0,4.8,0.4,6.4,1l-1.3,4.5c-1-0.5-2.8-0.8-4.4-0.8c-4.2,0-6.5,1.5-7.2,4.7
			c-0.6,3.2,1.2,4.8,5.4,4.8c1.5,0,3.4-0.3,4.8-0.8l-0.4,4.6c-1.9,0.7-4.4,1-6.9,1c-7.6,0-11.3-3.5-10.1-9.5
			C116.5,39.3,121.5,35.9,129.1,35.9z"/>
		<path class="st0" d="M138,36.2h7.2l-1.2,6.3h6.2l1.2-6.3h7.2L155,54.4h-7.2l1.4-7.3H143l-1.4,7.3h-7.2L138,36.2z"/>
		<path class="st0" d="M169,36.2l-3.5,18.2h-7.2l3.5-18.2H169z"/>
		<path class="st0" d="M175.7,40.9h-5.7l0.9-4.7h18.5l-0.9,4.7h-5.7l-2.6,13.5h-7.2L175.7,40.9z"/>
		<path class="st0" d="M191.3,36.2h16.4l-0.9,4.4h-9.2l-0.5,2.4h8.6l-0.9,4.4h-8.6l-0.5,2.5h9.4l-0.9,4.4h-16.6L191.3,36.2z"/>
		<path class="st0" d="M221.7,35.9c2.4,0,4.8,0.4,6.4,1l-1.3,4.5c-1-0.5-2.8-0.8-4.4-0.8c-4.2,0-6.5,1.5-7.2,4.7s1.2,4.8,5.4,4.8
			c1.5,0,3.4-0.3,4.8-0.8l-0.4,4.6c-1.9,0.7-4.4,1-6.9,1c-7.6,0-11.3-3.5-10.1-9.5C209.1,39.3,214.1,35.9,221.7,35.9z"/>
		<path class="st0" d="M234.1,40.9h-5.7l0.9-4.7h18.5l-0.9,4.7h-5.7l-2.6,13.5h-7.2L234.1,40.9z"/>
		<path class="st0" d="M247.6,46.6l2-10.4h7.2l-2.1,10.6c-0.4,2.3,0.4,3.2,2.5,3.2c2.1,0,3.3-0.9,3.7-3.2l2.1-10.6h7.2l-2,10.4
			c-1.1,5.4-5.6,8.1-11.9,8.1C250,54.7,246.5,52.1,247.6,46.6z"/>
		<path class="st0" d="M284.9,47.8l5.4,6.7h-8l-4.3-6l-1.2,6h-6.9l3.5-18.2h8.9c5.9,0,9.2,1.8,8.4,6
			C290.2,45.2,288.1,46.9,284.9,47.8z M281.5,40.4h-2l-0.7,3.8h2c1.5,0,2.8-0.5,3-1.9C284.1,40.9,283,40.4,281.5,40.4z"/>
		<path class="st0" d="M295.3,36.2h16.4l-0.9,4.4h-9.2l-0.5,2.4h8.6l-0.9,4.4h-8.6l-0.5,2.5h9.4l-0.9,4.4h-16.6L295.3,36.2z"/>
	</g>
	<g>
		<linearGradient id="SVGID_1_" gradientUnits="userSpaceOnUse" x1="43.6465" y1="64.7744" x2="53.9676" y2="4.422">
			<stop  offset="0" style="stop-color:#004CB7"/>
			<stop  offset="0.3749" style="stop-color:#02A5EC"/>
			<stop  offset="0.6847" style="stop-color:#00D4C0"/>
			<stop  offset="1" style="stop-color:#03CC83"/>
		</linearGradient>
		<path class="st1" d="M43.5,50.2c-1.4,1.3-1.4,3.4-0.2,4.7c1.3,1.4,3.4,1.4,4.7,0.2c1.4-1.3,1.4-3.4,0.2-4.7
			C46.9,49,44.8,48.9,43.5,50.2z"/>
		<linearGradient id="SVGID_2_" gradientUnits="userSpaceOnUse" x1="35.3035" y1="63.3476" x2="45.6246" y2="2.9953">
			<stop  offset="0" style="stop-color:#004CB7"/>
			<stop  offset="0.3749" style="stop-color:#02A5EC"/>
			<stop  offset="0.6847" style="stop-color:#00D4C0"/>
			<stop  offset="1" style="stop-color:#03CC83"/>
		</linearGradient>
		<path class="st2" d="M33.7,55.6c-1.5,1.4-1.6,3.7-0.2,5.2c1.4,1.5,3.7,1.6,5.2,0.2c1.5-1.4,1.6-3.7,0.2-5.2
			C37.5,54.3,35.2,54.2,33.7,55.6z"/>
		<linearGradient id="SVGID_3_" gradientUnits="userSpaceOnUse" x1="23.7056" y1="61.3642" x2="34.0267" y2="1.0118">
			<stop  offset="0" style="stop-color:#004CB7"/>
			<stop  offset="0.3749" style="stop-color:#02A5EC"/>
			<stop  offset="0.6847" style="stop-color:#00D4C0"/>
			<stop  offset="1" style="stop-color:#03CC83"/>
		</linearGradient>
		<path class="st3" d="M21.5,54.6c-1.7,1.6-1.8,4.2-0.2,5.9s4.2,1.8,5.9,0.2c1.7-1.6,1.8-4.2,0.2-5.9C25.8,53.2,23.2,53.1,21.5,54.6
			z"/>
		<linearGradient id="SVGID_4_" gradientUnits="userSpaceOnUse" x1="12.3784" y1="59.4271" x2="22.6995" y2="-0.9253">
			<stop  offset="0" style="stop-color:#004CB7"/>
			<stop  offset="0.3749" style="stop-color:#02A5EC"/>
			<stop  offset="0.6847" style="stop-color:#00D4C0"/>
			<stop  offset="1" style="stop-color:#03CC83"/>
		</linearGradient>
		<path class="st4" d="M10.7,47.9c-1.8,1.7-1.9,4.5-0.2,6.3c1.7,1.8,4.5,1.9,6.3,0.2c1.8-1.7,1.9-4.5,0.2-6.3
			C15.4,46.3,12.6,46.2,10.7,47.9z"/>
		<linearGradient id="SVGID_5_" gradientUnits="userSpaceOnUse" x1="3.925" y1="57.9815" x2="14.2462" y2="-2.3709">
			<stop  offset="0" style="stop-color:#004CB7"/>
			<stop  offset="0.3749" style="stop-color:#02A5EC"/>
			<stop  offset="0.6847" style="stop-color:#00D4C0"/>
			<stop  offset="1" style="stop-color:#03CC83"/>
		</linearGradient>
		<circle class="st5" cx="6.9" cy="40.7" r="5.1"/>
		<linearGradient id="SVGID_6_" gradientUnits="userSpaceOnUse" x1="1.5032" y1="57.5673" x2="11.8243" y2="-2.7851">
			<stop  offset="0" style="stop-color:#004CB7"/>
			<stop  offset="0.3749" style="stop-color:#02A5EC"/>
			<stop  offset="0.6847" style="stop-color:#00D4C0"/>
			<stop  offset="1" style="stop-color:#03CC83"/>
		</linearGradient>
		<path class="st6" d="M10.4,31.3c2.2-2.1,2.4-5.5,0.3-7.8c-2.1-2.2-5.5-2.4-7.8-0.3c-2.2,2.1-2.4,5.5-0.3,7.8S8.2,33.4,10.4,31.3z"
			/>
		<linearGradient id="SVGID_7_" gradientUnits="userSpaceOnUse" x1="5.9593" y1="58.3293" x2="16.2804" y2="-2.023">
			<stop  offset="0" style="stop-color:#004CB7"/>
			<stop  offset="0.3749" style="stop-color:#02A5EC"/>
			<stop  offset="0.6847" style="stop-color:#00D4C0"/>
			<stop  offset="1" style="stop-color:#03CC83"/>
		</linearGradient>
		<path class="st7" d="M9.4,10.1c-2.4,2.2-2.6,6-0.3,8.4s6,2.6,8.4,0.3c2.4-2.2,2.6-6,0.3-8.4C15.6,8,11.8,7.8,9.4,10.1z"/>
		<linearGradient id="SVGID_8_" gradientUnits="userSpaceOnUse" x1="18.0545" y1="60.3978" x2="28.3756" y2="4.541729e-02">
			<stop  offset="0" style="stop-color:#004CB7"/>
			<stop  offset="0.3749" style="stop-color:#02A5EC"/>
			<stop  offset="0.6847" style="stop-color:#00D4C0"/>
			<stop  offset="1" style="stop-color:#03CC83"/>
		</linearGradient>
		<circle class="st8" cx="27.2" cy="7.2" r="6.4"/>
		<linearGradient id="SVGID_9_" gradientUnits="userSpaceOnUse" x1="34.9925" y1="63.2944" x2="45.3136" y2="2.9421">
			<stop  offset="0" style="stop-color:#004CB7"/>
			<stop  offset="0.3749" style="stop-color:#02A5EC"/>
			<stop  offset="0.6847" style="stop-color:#00D4C0"/>
			<stop  offset="1" style="stop-color:#03CC83"/>
		</linearGradient>
		<path class="st9" d="M48.9,15.2c2.9-2.7,3-7.1,0.4-10s-7.1-3-10-0.4c-2.9,2.7-3,7.1-0.4,10C41.6,17.7,46,17.9,48.9,15.2z"/>
	</g>
</g>
</svg>
