<?xml version="1.0" encoding="utf-8"?>
<!-- Generator: Adobe Illustrator 25.0.1, SVG Export Plug-In . SVG Version: 6.00 Build 0)  -->
<svg version="1.1" id="Layer_1" xmlns="http://www.w3.org/2000/svg" xmlns:xlink="http://www.w3.org/1999/xlink" x="0px" y="0px"
	 viewBox="0 0 100 100" style="enable-background:new 0 0 100 100;" xml:space="preserve">
<style type="text/css">
	.st0{opacity:0.21;fill:#24D17A;}
	.st1{fill:#24D17A;}
	.st2{fill:#FFFFFF;}
</style>
<path class="st0" d="M73.9,100H26.1C11.7,100,0,88.3,0,73.9V26.1C0,11.7,11.7,0,26.1,0h47.8C88.3,0,100,11.7,100,26.1v47.8
	C100,88.3,88.3,100,73.9,100z"/>
<path class="st1" d="M73.7,94.6H26.2c-11.5,0-20.8-9.3-20.8-20.8V26.2c0-11.5,9.3-20.8,20.8-20.8h47.5c11.5,0,20.8,9.3,20.8,20.8
	v47.5C94.5,85.3,85.2,94.6,73.7,94.6z"/>
<path class="st2" d="M73.2,69.7L59.3,55.8c2.4-3.1,3.8-7,3.8-11.2c0-10.2-8.3-18.6-18.6-18.6S26,34.4,26,44.6
	c0,10.2,8.3,18.6,18.6,18.6c4.2,0,8.1-1.4,11.3-3.8l13.9,13.9c0.5,0.5,1.1,0.7,1.8,0.7s1.3-0.2,1.8-0.7
	C74.2,72.2,74.2,70.7,73.2,69.7z M31,44.6c0-7.5,6.1-13.6,13.6-13.6c7.5,0,13.6,6.1,13.6,13.6S52,58.2,44.5,58.2
	C37,58.2,31,52.1,31,44.6z"/>
</svg>
