<?xml version="1.0" encoding="utf-8"?>
<!-- Generator: Adobe Illustrator 25.0.1, SVG Export Plug-In . SVG Version: 6.00 Build 0)  -->
<svg version="1.1" id="Layer_1" xmlns="http://www.w3.org/2000/svg" xmlns:xlink="http://www.w3.org/1999/xlink" x="0px" y="0px"
	 viewBox="0 0 100 100" style="enable-background:new 0 0 100 100;" xml:space="preserve">
<style type="text/css">
	.st0{opacity:0.2;fill:#FFA341;}
	.st1{fill:#FFA341;}
	.st2{fill:#FFFFFF;}
</style>
<path class="st0" d="M73.9,100H26.1C11.7,100,0,88.3,0,73.9V26.1C0,11.7,11.7,0,26.1,0h47.8C88.3,0,100,11.7,100,26.1v47.8
	C100,88.3,88.3,100,73.9,100z"/>
<path class="st1" d="M73.7,94.6H26.2c-11.5,0-20.8-9.3-20.8-20.8V26.2c0-11.5,9.3-20.8,20.8-20.8h47.5c11.5,0,20.8,9.3,20.8,20.8
	v47.5C94.5,85.3,85.2,94.6,73.7,94.6z"/>
<g>
	<path class="st2" d="M74.6,76l-14.8-4.3l14.8-4.3c1.3-0.4,2.1-1.8,1.7-3.1c-0.4-1.3-1.8-2.1-3.1-1.7L50.9,69l-22.4-6.5
		c-1.3-0.4-2.7,0.4-3.1,1.7c-0.4,1.3,0.4,2.7,1.7,3.1l14.8,4.3L27.1,76c-1.3,0.4-2.1,1.8-1.7,3.1c0.3,1.1,1.3,1.8,2.4,1.8
		c0.2,0,0.5,0,0.7-0.1l22.4-6.5l22.4,6.5c0.2,0.1,0.5,0.1,0.7,0.1c1.1,0,2.1-0.7,2.4-1.8C76.7,77.7,76,76.3,74.6,76z"/>
	<path class="st2" d="M65.1,61.5c-0.5,0-1-0.1-1.4-0.4c-1.1-0.8-1.4-2.3-0.7-3.5c6-8.9,0.9-20.1-2.4-25c-1.8,1.8-4.1,4.3-5.8,6.2
		c-0.6,0.7-1.5,1-2.4,0.8c-0.9-0.2-1.6-0.8-1.9-1.7c-1.3-4.1-2.9-8.9-6.1-14c-6.6,7.3-13.5,22.2-5.1,33.5c0.8,1.1,0.6,2.7-0.5,3.5
		c-1.1,0.8-2.7,0.6-3.5-0.5c-6.4-8.6-8.3-28,7.9-42.3c0.5-0.5,1.2-0.7,1.9-0.6c0.7,0.1,1.3,0.5,1.8,1c3.5,4.9,5.6,9.5,7.1,13.7
		c1.9-2,4-4.2,5.5-5.4c1-0.8,2.5-0.7,3.4,0.3c4.9,5.6,12.4,21.1,4.3,33.1C66.7,61.1,65.9,61.5,65.1,61.5z"/>
	<path class="st2" d="M47.1,61.5c-1.3,0-2.4-1-2.5-2.3l-1.2-12.6c-0.1-1.4,0.9-2.6,2.2-2.7c1.4-0.1,2.6,0.9,2.7,2.2l1.2,12.6
		c0.1,1.4-0.9,2.6-2.2,2.7C47.3,61.5,47.2,61.5,47.1,61.5z"/>
	<path class="st2" d="M55.6,61.5c-0.1,0-0.2,0-0.3,0c-1.4-0.2-2.3-1.4-2.2-2.8l0.8-7c0.2-1.4,1.4-2.3,2.8-2.2
		c1.4,0.2,2.3,1.4,2.2,2.8l-0.8,7C57.9,60.6,56.8,61.5,55.6,61.5z"/>
</g>
</svg>
