<?xml version="1.0" encoding="utf-8"?>
<!-- Generator: Adobe Illustrator 25.0.1, SVG Export Plug-In . SVG Version: 6.00 Build 0)  -->
<svg version="1.1" id="Layer_1" xmlns="http://www.w3.org/2000/svg" xmlns:xlink="http://www.w3.org/1999/xlink" x="0px" y="0px"
	 viewBox="0 0 100 100" style="enable-background:new 0 0 100 100;" xml:space="preserve">
<style type="text/css">
	.st0{opacity:0.2;fill:#F7505B;}
	.st1{fill:#F7505B;}
	.st2{fill:#FFFFFF;}
</style>
<path class="st0" d="M73.9,100H26.1C11.7,100,0,88.3,0,73.9V26.1C0,11.7,11.7,0,26.1,0h47.8C88.3,0,100,11.7,100,26.1v47.8
	C100,88.3,88.3,100,73.9,100z"/>
<path class="st1" d="M73.7,94.6H26.2c-11.5,0-20.8-9.3-20.8-20.8V26.2c0-11.5,9.3-20.8,20.8-20.8h47.5c11.5,0,20.8,9.3,20.8,20.8
	v47.5C94.5,85.3,85.2,94.6,73.7,94.6z"/>
<g>
	<path class="st2" d="M37.7,46.8c-5.7,0-10.4-4.7-10.4-10.4S32,26,37.7,26s10.4,4.7,10.4,10.4S43.5,46.8,37.7,46.8z M37.7,31
		c-3,0-5.4,2.4-5.4,5.4c0,3,2.4,5.4,5.4,5.4c3,0,5.4-2.4,5.4-5.4C43.1,33.4,40.7,31,37.7,31z"/>
	<path class="st2" d="M55,74H21c-1.4,0-2.5-1.1-2.5-2.5c0-12.3,8.4-21.6,19.5-21.6c11.1,0,19.5,9.3,19.5,21.6
		C57.5,72.9,56.4,74,55,74z M23.6,69h28.8c-1-8.3-6.7-14.1-14.4-14.1S24.6,60.7,23.6,69z"/>
	<path class="st2" d="M61.7,46.8c-5.7,0-10.4-4.7-10.4-10.4S55.9,26,61.7,26S72,30.7,72,36.4S67.4,46.8,61.7,46.8z M61.7,31
		c-3,0-5.4,2.4-5.4,5.4c0,3,2.4,5.4,5.4,5.4s5.4-2.4,5.4-5.4C67,33.4,64.6,31,61.7,31z"/>
	<path class="st2" d="M78.9,74H63c-1.4,0-2.5-1.1-2.5-2.5S61.6,69,63,69h13.3c-1-8.3-6.7-14.1-14.4-14.1c-1.4,0-2.8,0.2-4.2,0.6
		c-1.3,0.4-2.7-0.3-3.1-1.7c-0.4-1.3,0.3-2.7,1.7-3.1c1.8-0.5,3.7-0.8,5.6-0.8c11.1,0,19.5,9.3,19.5,21.6C81.4,72.9,80.3,74,78.9,74
		z"/>
</g>
</svg>
