<svg id="Layer_1" data-name="Layer 1" xmlns="http://www.w3.org/2000/svg" viewBox="0 0 128 124.73"><defs></defs><path d="M64.06,0A63.95,63.95,0,0,0,43.83,124.61c3.2.56,4.4-1.36,4.4-3,0-1.52-.08-6.55-.08-11.91-16.06,3-20.22-3.91-21.5-7.51-.72-1.84-3.84-7.51-6.55-9-2.24-1.2-5.44-4.16-.08-4.24,5-.08,8.63,4.64,9.83,6.56,5.75,9.67,14.94,7,18.62,5.27.56-4.16,2.24-6.95,4.08-8.55-14.23-1.6-29.1-7.12-29.1-31.57A24.88,24.88,0,0,1,30,43.4c-.64-1.6-2.88-8.15.64-16.94,0,0,5.35-1.68,17.58,6.55a60.23,60.23,0,0,1,32,0c12.23-8.31,17.59-6.55,17.59-6.55,3.51,8.79,1.28,15.34.64,16.94A24.78,24.78,0,0,1,105,60.59c0,24.53-15,30-29.17,31.57,2.31,2,4.31,5.83,4.31,11.83,0,8.55-.08,15.42-.08,17.58,0,1.68,1.2,3.68,4.4,3A64,64,0,0,0,64.06,0Z"/></svg>