<svg id="Layer_1" data-name="Layer 1" xmlns="http://www.w3.org/2000/svg" viewBox="0 0 128 128"><path d="M27,80.87A13.44,13.44,0,1,1,13.54,67.43H27Z"/><path d="M33.71,80.87a13.44,13.44,0,0,1,26.88,0v33.6a13.44,13.44,0,0,1-26.88,0Z"/><path d="M47.15,26.9A13.45,13.45,0,1,1,60.59,13.46V26.9Z"/><path d="M47.15,33.72a13.44,13.44,0,1,1,0,26.88H13.44a13.44,13.44,0,0,1,0-26.88Z"/><path d="M101,47.16A13.44,13.44,0,1,1,114.46,60.6H101Z"/><path d="M94.29,47.16a13.44,13.44,0,0,1-26.88,0V13.46a13.44,13.44,0,1,1,26.88,0Z"/><path d="M80.85,101a13.44,13.44,0,1,1-13.44,13.44V101Z"/><path d="M80.85,94.31a13.44,13.44,0,0,1,0-26.88h33.71a13.44,13.44,0,0,1,0,26.88Z"/></svg>