<?xml version="1.0" encoding="UTF-8"?>
<svg width="100px" height="100px" viewBox="0 0 100 100" version="1.1" xmlns="http://www.w3.org/2000/svg" xmlns:xlink="http://www.w3.org/1999/xlink">
    <title>calendar</title>
    <g id="Page-1" stroke="none" stroke-width="1" fill="none" fill-rule="evenodd">
        <g id="calendar">
            <path d="M73.9,100 L26.1,100 C11.7,100 0,88.3 0,73.9 L0,26.1 C0,11.7 11.7,0 26.1,0 L73.9,0 C88.3,0 100,11.7 100,26.1 L100,73.9 C100,88.3 88.3,100 73.9,100 Z" id="Path" fill="#D4E9FF" opacity="0.21"></path>
            <path d="M73.7,94.6 L26.2,94.6 C14.7,94.6 5.4,85.3 5.4,73.8 L5.4,26.2 C5.4,14.7 14.7,5.4 26.2,5.4 L73.7,5.4 C85.2,5.4 94.5,14.7 94.5,26.2 L94.5,73.7 C94.5,85.3 85.2,94.6 73.7,94.6 Z" id="Path" fill="#008EFF"></path>
            <g id="Shape" transform="translate(19.000000, 19.000000)" fill="#FFFFFF">
                <g transform="translate(5.391304, 24.260870)">
                    <path d="M8.08695652,4.85217391 L8.08695652,3.23478261 C8.08695652,1.44891304 6.63804348,0 4.85217391,0 L3.23478261,0 C1.44891304,0 0,1.44891304 0,3.23478261 L0,4.85217391 C0,6.63804348 1.44891304,8.08695652 3.23478261,8.08695652 L4.85217391,8.08695652 C6.63804348,8.08695652 8.08695652,6.63804348 8.08695652,4.85217391 Z M5.39130435,3.23478261 L5.39130435,4.85217391 C5.39130435,5.15004348 5.15004348,5.39130435 4.85217391,5.39130435 C4.85217391,5.39130435 3.23478261,5.39130435 3.23478261,5.39130435 C2.93691304,5.39130435 2.69565217,5.15004348 2.69565217,4.85217391 C2.69565217,4.85217391 2.69565217,3.23478261 2.69565217,3.23478261 C2.69565217,2.93691304 2.93691304,2.69565217 3.23478261,2.69565217 C3.23478261,2.69565217 4.85217391,2.69565217 4.85217391,2.69565217 C5.15004348,2.69565217 5.39130435,2.93691304 5.39130435,3.23478261 Z"></path>
                </g>
                <g transform="translate(5.391304, 35.043478)">
                    <path d="M8.08695652,4.85217391 L8.08695652,3.23478261 C8.08695652,1.44891304 6.63804348,0 4.85217391,0 L3.23478261,0 C1.44891304,0 0,1.44891304 0,3.23478261 L0,4.85217391 C0,6.63804348 1.44891304,8.08695652 3.23478261,8.08695652 L4.85217391,8.08695652 C6.63804348,8.08695652 8.08695652,6.63804348 8.08695652,4.85217391 Z M5.39130435,3.23478261 L5.39130435,4.85217391 C5.39130435,5.15004348 5.15004348,5.39130435 4.85217391,5.39130435 C4.85217391,5.39130435 3.23478261,5.39130435 3.23478261,5.39130435 C2.93691304,5.39130435 2.69565217,5.15004348 2.69565217,4.85217391 C2.69565217,4.85217391 2.69565217,3.23478261 2.69565217,3.23478261 C2.69565217,2.93691304 2.93691304,2.69565217 3.23478261,2.69565217 C3.23478261,2.69565217 4.85217391,2.69565217 4.85217391,2.69565217 C5.15004348,2.69565217 5.39130435,2.93691304 5.39130435,3.23478261 Z"></path>
                </g>
                <g transform="translate(5.391304, 45.826087)">
                    <path d="M8.08695652,4.85217391 L8.08695652,3.23478261 C8.08695652,1.44891304 6.63804348,0 4.85217391,0 L3.23478261,0 C1.44891304,0 0,1.44891304 0,3.23478261 L0,4.85217391 C0,6.63804348 1.44891304,8.08695652 3.23478261,8.08695652 L4.85217391,8.08695652 C6.63804348,8.08695652 8.08695652,6.63804348 8.08695652,4.85217391 Z M5.39130435,3.23478261 L5.39130435,4.85217391 C5.39130435,5.15004348 5.15004348,5.39130435 4.85217391,5.39130435 C4.85217391,5.39130435 3.23478261,5.39130435 3.23478261,5.39130435 C2.93691304,5.39130435 2.69565217,5.15004348 2.69565217,4.85217391 C2.69565217,4.85217391 2.69565217,3.23478261 2.69565217,3.23478261 C2.69565217,2.93691304 2.93691304,2.69565217 3.23478261,2.69565217 C3.23478261,2.69565217 4.85217391,2.69565217 4.85217391,2.69565217 C5.15004348,2.69565217 5.39130435,2.93691304 5.39130435,3.23478261 Z"></path>
                </g>
                <g transform="translate(16.173913, 24.260870)">
                    <path d="M8.08695652,4.85217391 L8.08695652,3.23478261 C8.08695652,1.44891304 6.63804348,0 4.85217391,0 L3.23478261,0 C1.44891304,0 0,1.44891304 0,3.23478261 L0,4.85217391 C0,6.63804348 1.44891304,8.08695652 3.23478261,8.08695652 L4.85217391,8.08695652 C6.63804348,8.08695652 8.08695652,6.63804348 8.08695652,4.85217391 Z M5.39130435,3.23478261 L5.39130435,4.85217391 C5.39130435,5.15004348 5.15004348,5.39130435 4.85217391,5.39130435 C4.85217391,5.39130435 3.23478261,5.39130435 3.23478261,5.39130435 C2.93691304,5.39130435 2.69565217,5.15004348 2.69565217,4.85217391 C2.69565217,4.85217391 2.69565217,3.23478261 2.69565217,3.23478261 C2.69565217,2.93691304 2.93691304,2.69565217 3.23478261,2.69565217 C3.23478261,2.69565217 4.85217391,2.69565217 4.85217391,2.69565217 C5.15004348,2.69565217 5.39130435,2.93691304 5.39130435,3.23478261 Z"></path>
                </g>
                <g transform="translate(16.173913, 35.043478)">
                    <path d="M8.08695652,4.85217391 L8.08695652,3.23478261 C8.08695652,1.44891304 6.63804348,0 4.85217391,0 L3.23478261,0 C1.44891304,0 0,1.44891304 0,3.23478261 L0,4.85217391 C0,6.63804348 1.44891304,8.08695652 3.23478261,8.08695652 L4.85217391,8.08695652 C6.63804348,8.08695652 8.08695652,6.63804348 8.08695652,4.85217391 Z M5.39130435,3.23478261 L5.39130435,4.85217391 C5.39130435,5.15004348 5.15004348,5.39130435 4.85217391,5.39130435 C4.85217391,5.39130435 3.23478261,5.39130435 3.23478261,5.39130435 C2.93691304,5.39130435 2.69565217,5.15004348 2.69565217,4.85217391 C2.69565217,4.85217391 2.69565217,3.23478261 2.69565217,3.23478261 C2.69565217,2.93691304 2.93691304,2.69565217 3.23478261,2.69565217 C3.23478261,2.69565217 4.85217391,2.69565217 4.85217391,2.69565217 C5.15004348,2.69565217 5.39130435,2.93691304 5.39130435,3.23478261 Z"></path>
                </g>
                <g transform="translate(16.173913, 45.826087)">
                    <path d="M8.08695652,4.85217391 L8.08695652,3.23478261 C8.08695652,1.44891304 6.63804348,0 4.85217391,0 L3.23478261,0 C1.44891304,0 0,1.44891304 0,3.23478261 L0,4.85217391 C0,6.63804348 1.44891304,8.08695652 3.23478261,8.08695652 L4.85217391,8.08695652 C6.63804348,8.08695652 8.08695652,6.63804348 8.08695652,4.85217391 Z M5.39130435,3.23478261 L5.39130435,4.85217391 C5.39130435,5.15004348 5.15004348,5.39130435 4.85217391,5.39130435 C4.85217391,5.39130435 3.23478261,5.39130435 3.23478261,5.39130435 C2.93691304,5.39130435 2.69565217,5.15004348 2.69565217,4.85217391 C2.69565217,4.85217391 2.69565217,3.23478261 2.69565217,3.23478261 C2.69565217,2.93691304 2.93691304,2.69565217 3.23478261,2.69565217 C3.23478261,2.69565217 4.85217391,2.69565217 4.85217391,2.69565217 C5.15004348,2.69565217 5.39130435,2.93691304 5.39130435,3.23478261 Z"></path>
                </g>
                <g transform="translate(26.956522, 24.260870)">
                    <path d="M8.08695652,4.85217391 L8.08695652,3.23478261 C8.08695652,1.44891304 6.63804348,0 4.85217391,0 L3.23478261,0 C1.44891304,0 0,1.44891304 0,3.23478261 L0,4.85217391 C0,6.63804348 1.44891304,8.08695652 3.23478261,8.08695652 L4.85217391,8.08695652 C6.63804348,8.08695652 8.08695652,6.63804348 8.08695652,4.85217391 Z M5.39130435,3.23478261 L5.39130435,4.85217391 C5.39130435,5.15004348 5.15004348,5.39130435 4.85217391,5.39130435 C4.85217391,5.39130435 3.23478261,5.39130435 3.23478261,5.39130435 C2.93691304,5.39130435 2.69565217,5.15004348 2.69565217,4.85217391 C2.69565217,4.85217391 2.69565217,3.23478261 2.69565217,3.23478261 C2.69565217,2.93691304 2.93691304,2.69565217 3.23478261,2.69565217 C3.23478261,2.69565217 4.85217391,2.69565217 4.85217391,2.69565217 C5.15004348,2.69565217 5.39130435,2.93691304 5.39130435,3.23478261 Z"></path>
                </g>
                <g transform="translate(26.956522, 35.043478)">
                    <path d="M8.08695652,4.85217391 L8.08695652,3.23478261 C8.08695652,1.44891304 6.63804348,0 4.85217391,0 L3.23478261,0 C1.44891304,0 0,1.44891304 0,3.23478261 L0,4.85217391 C0,6.63804348 1.44891304,8.08695652 3.23478261,8.08695652 L4.85217391,8.08695652 C6.63804348,8.08695652 8.08695652,6.63804348 8.08695652,4.85217391 Z M5.39130435,3.23478261 L5.39130435,4.85217391 C5.39130435,5.15004348 5.15004348,5.39130435 4.85217391,5.39130435 C4.85217391,5.39130435 3.23478261,5.39130435 3.23478261,5.39130435 C2.93691304,5.39130435 2.69565217,5.15004348 2.69565217,4.85217391 C2.69565217,4.85217391 2.69565217,3.23478261 2.69565217,3.23478261 C2.69565217,2.93691304 2.93691304,2.69565217 3.23478261,2.69565217 C3.23478261,2.69565217 4.85217391,2.69565217 4.85217391,2.69565217 C5.15004348,2.69565217 5.39130435,2.93691304 5.39130435,3.23478261 Z"></path>
                </g>
                <g transform="translate(26.956522, 45.826087)">
                    <path d="M8.08695652,4.85217391 L8.08695652,3.23478261 C8.08695652,1.44891304 6.63804348,0 4.85217391,0 L3.23478261,0 C1.44891304,0 0,1.44891304 0,3.23478261 L0,4.85217391 C0,6.63804348 1.44891304,8.08695652 3.23478261,8.08695652 L4.85217391,8.08695652 C6.63804348,8.08695652 8.08695652,6.63804348 8.08695652,4.85217391 Z M5.39130435,3.23478261 L5.39130435,4.85217391 C5.39130435,5.15004348 5.15004348,5.39130435 4.85217391,5.39130435 C4.85217391,5.39130435 3.23478261,5.39130435 3.23478261,5.39130435 C2.93691304,5.39130435 2.69565217,5.15004348 2.69565217,4.85217391 C2.69565217,4.85217391 2.69565217,3.23478261 2.69565217,3.23478261 C2.69565217,2.93691304 2.93691304,2.69565217 3.23478261,2.69565217 C3.23478261,2.69565217 4.85217391,2.69565217 4.85217391,2.69565217 C5.15004348,2.69565217 5.39130435,2.93691304 5.39130435,3.23478261 Z"></path>
                </g>
                <g transform="translate(37.739130, 24.260870)">
                    <path d="M8.08695652,4.85217391 L8.08695652,3.23478261 C8.08695652,1.44891304 6.63804348,0 4.85217391,0 L3.23478261,0 C1.44891304,0 0,1.44891304 0,3.23478261 L0,4.85217391 C0,6.63804348 1.44891304,8.08695652 3.23478261,8.08695652 L4.85217391,8.08695652 C6.63804348,8.08695652 8.08695652,6.63804348 8.08695652,4.85217391 Z M5.39130435,3.23478261 L5.39130435,4.85217391 C5.39130435,5.15004348 5.15004348,5.39130435 4.85217391,5.39130435 C4.85217391,5.39130435 3.23478261,5.39130435 3.23478261,5.39130435 C2.93691304,5.39130435 2.69565217,5.15004348 2.69565217,4.85217391 C2.69565217,4.85217391 2.69565217,3.23478261 2.69565217,3.23478261 C2.69565217,2.93691304 2.93691304,2.69565217 3.23478261,2.69565217 C3.23478261,2.69565217 4.85217391,2.69565217 4.85217391,2.69565217 C5.15004348,2.69565217 5.39130435,2.93691304 5.39130435,3.23478261 Z"></path>
                </g>
                <g transform="translate(37.739130, 35.043478)">
                    <path d="M8.08695652,4.85217391 L8.08695652,3.23478261 C8.08695652,1.44891304 6.63804348,0 4.85217391,0 L3.23478261,0 C1.44891304,0 0,1.44891304 0,3.23478261 L0,4.85217391 C0,6.63804348 1.44891304,8.08695652 3.23478261,8.08695652 L4.85217391,8.08695652 C6.63804348,8.08695652 8.08695652,6.63804348 8.08695652,4.85217391 Z M5.39130435,3.23478261 L5.39130435,4.85217391 C5.39130435,5.15004348 5.15004348,5.39130435 4.85217391,5.39130435 C4.85217391,5.39130435 3.23478261,5.39130435 3.23478261,5.39130435 C2.93691304,5.39130435 2.69565217,5.15004348 2.69565217,4.85217391 C2.69565217,4.85217391 2.69565217,3.23478261 2.69565217,3.23478261 C2.69565217,2.93691304 2.93691304,2.69565217 3.23478261,2.69565217 C3.23478261,2.69565217 4.85217391,2.69565217 4.85217391,2.69565217 C5.15004348,2.69565217 5.39130435,2.93691304 5.39130435,3.23478261 Z"></path>
                </g>
                <g transform="translate(37.739130, 45.826087)">
                    <path d="M8.08695652,4.85217391 L8.08695652,3.23478261 C8.08695652,1.44891304 6.63804348,0 4.85217391,0 L3.23478261,0 C1.44891304,0 0,1.44891304 0,3.23478261 L0,4.85217391 C0,6.63804348 1.44891304,8.08695652 3.23478261,8.08695652 L4.85217391,8.08695652 C6.63804348,8.08695652 8.08695652,6.63804348 8.08695652,4.85217391 Z M5.39130435,3.23478261 L5.39130435,4.85217391 C5.39130435,5.15004348 5.15004348,5.39130435 4.85217391,5.39130435 C4.85217391,5.39130435 3.23478261,5.39130435 3.23478261,5.39130435 C2.93691304,5.39130435 2.69565217,5.15004348 2.69565217,4.85217391 C2.69565217,4.85217391 2.69565217,3.23478261 2.69565217,3.23478261 C2.69565217,2.93691304 2.93691304,2.69565217 3.23478261,2.69565217 C3.23478261,2.69565217 4.85217391,2.69565217 4.85217391,2.69565217 C5.15004348,2.69565217 5.39130435,2.93691304 5.39130435,3.23478261 Z"></path>
                </g>
                <g transform="translate(48.521739, 24.260870)">
                    <path d="M8.08695652,4.85217391 L8.08695652,3.23478261 C8.08695652,1.44891304 6.63804348,0 4.85217391,0 L3.23478261,0 C1.44891304,0 0,1.44891304 0,3.23478261 L0,4.85217391 C0,6.63804348 1.44891304,8.08695652 3.23478261,8.08695652 L4.85217391,8.08695652 C6.63804348,8.08695652 8.08695652,6.63804348 8.08695652,4.85217391 Z M5.39130435,3.23478261 L5.39130435,4.85217391 C5.39130435,5.15004348 5.15004348,5.39130435 4.85217391,5.39130435 C4.85217391,5.39130435 3.23478261,5.39130435 3.23478261,5.39130435 C2.93691304,5.39130435 2.69565217,5.15004348 2.69565217,4.85217391 C2.69565217,4.85217391 2.69565217,3.23478261 2.69565217,3.23478261 C2.69565217,2.93691304 2.93691304,2.69565217 3.23478261,2.69565217 C3.23478261,2.69565217 4.85217391,2.69565217 4.85217391,2.69565217 C5.15004348,2.69565217 5.39130435,2.93691304 5.39130435,3.23478261 Z"></path>
                </g>
                <g transform="translate(48.521739, 35.043478)">
                    <path d="M8.08695652,4.85217391 L8.08695652,3.23478261 C8.08695652,1.44891304 6.63804348,0 4.85217391,0 L3.23478261,0 C1.44891304,0 0,1.44891304 0,3.23478261 L0,4.85217391 C0,6.63804348 1.44891304,8.08695652 3.23478261,8.08695652 L4.85217391,8.08695652 C6.63804348,8.08695652 8.08695652,6.63804348 8.08695652,4.85217391 Z M5.39130435,3.23478261 L5.39130435,4.85217391 C5.39130435,5.15004348 5.15004348,5.39130435 4.85217391,5.39130435 C4.85217391,5.39130435 3.23478261,5.39130435 3.23478261,5.39130435 C2.93691304,5.39130435 2.69565217,5.15004348 2.69565217,4.85217391 C2.69565217,4.85217391 2.69565217,3.23478261 2.69565217,3.23478261 C2.69565217,2.93691304 2.93691304,2.69565217 3.23478261,2.69565217 C3.23478261,2.69565217 4.85217391,2.69565217 4.85217391,2.69565217 C5.15004348,2.69565217 5.39130435,2.93691304 5.39130435,3.23478261 Z"></path>
                </g>
                <g transform="translate(48.521739, 45.826087)">
                    <path d="M8.08695652,4.85217391 L8.08695652,3.23478261 C8.08695652,1.44891304 6.63804348,0 4.85217391,0 L3.23478261,0 C1.44891304,0 0,1.44891304 0,3.23478261 L0,4.85217391 C0,6.63804348 1.44891304,8.08695652 3.23478261,8.08695652 L4.85217391,8.08695652 C6.63804348,8.08695652 8.08695652,6.63804348 8.08695652,4.85217391 Z M5.39130435,3.23478261 L5.39130435,4.85217391 C5.39130435,5.15004348 5.15004348,5.39130435 4.85217391,5.39130435 C4.85217391,5.39130435 3.23478261,5.39130435 3.23478261,5.39130435 C2.93691304,5.39130435 2.69565217,5.15004348 2.69565217,4.85217391 C2.69565217,4.85217391 2.69565217,3.23478261 2.69565217,3.23478261 C2.69565217,2.93691304 2.93691304,2.69565217 3.23478261,2.69565217 C3.23478261,2.69565217 4.85217391,2.69565217 4.85217391,2.69565217 C5.15004348,2.69565217 5.39130435,2.93691304 5.39130435,3.23478261 Z"></path>
                </g>
                <path d="M43.1304348,5.39130435 L43.1304348,3.23478261 C43.1304348,2.37621739 43.4714348,1.55404348 44.0779565,0.947521739 C44.6844783,0.341 45.5066522,0 46.3652174,0 L47.9826087,0 C48.8411739,0 49.6633478,0.341 50.2698696,0.947521739 C50.8763913,1.55404348 51.2173913,2.37621739 51.2173913,3.23478261 L51.2173913,5.39130435 L55.2608696,5.39130435 C57.048087,5.39130435 58.7625217,6.1016087 60.0267826,7.36452174 C61.2896957,8.62878261 62,10.3432174 62,12.1304348 C62,14.826087 62,43.6911304 62,55.2608696 C62,57.048087 61.2896957,58.7625217 60.0267826,60.0267826 C58.7625217,61.2896957 57.048087,62 55.2608696,62 C43.9836087,62 18.0163913,62 6.73913043,62 C4.95191304,62 3.23747826,61.2896957 1.97321739,60.0267826 C0.710304348,58.7625217 0,57.048087 0,55.2608696 L0,12.1304348 C0,10.3432174 0.710304348,8.62878261 1.97321739,7.36452174 C3.23747826,6.1016087 4.95191304,5.39130435 6.73913043,5.39130435 L10.7826087,5.39130435 L10.7826087,3.23478261 C10.7826087,2.37621739 11.1236087,1.55404348 11.7301304,0.947521739 C12.3366522,0.341 13.1588261,0 14.0173913,0 L15.6347826,0 C16.4933478,0 17.3155217,0.341 17.9220435,0.947521739 C18.5285652,1.55404348 18.8695652,2.37621739 18.8695652,3.23478261 L18.8695652,5.39130435 L43.1304348,5.39130435 Z M59.3043478,18.8695652 L59.3043478,55.2608696 C59.3043478,56.3337391 58.8784348,57.3621304 58.1196087,58.1196087 C57.3621304,58.8784348 56.3337391,59.3043478 55.2608696,59.3043478 C43.9836087,59.3043478 18.0163913,59.3043478 6.73913043,59.3043478 C5.66626087,59.3043478 4.63786957,58.8784348 3.8803913,58.1196087 C3.12156522,57.3621304 2.69565217,56.3337391 2.69565217,55.2608696 C2.69565217,55.2608696 2.69565217,18.8695652 2.69565217,18.8695652 L59.3043478,18.8695652 Z M10.7826087,8.08695652 L6.73913043,8.08695652 C5.66626087,8.08695652 4.63786957,8.51286957 3.8803913,9.27169565 C3.12156522,10.0291739 2.69565217,11.0575652 2.69565217,12.1304348 L2.69565217,16.173913 L59.3043478,16.173913 L59.3043478,12.1304348 C59.3043478,11.0575652 58.8784348,10.0291739 58.1196087,9.27169565 C57.3621304,8.51286957 56.3337391,8.08695652 55.2608696,8.08695652 L51.2173913,8.08695652 L51.2173913,10.2434783 C51.2173913,11.1020435 50.8763913,11.9242174 50.2698696,12.5307391 C49.6633478,13.1372609 48.8411739,13.4782609 47.9826087,13.4782609 L46.3652174,13.4782609 C45.5066522,13.4782609 44.6844783,13.1372609 44.0779565,12.5307391 C43.4714348,11.9242174 43.1304348,11.1020435 43.1304348,10.2434783 L43.1304348,8.08695652 L18.8695652,8.08695652 L18.8695652,10.2434783 C18.8695652,11.1020435 18.5285652,11.9242174 17.9220435,12.5307391 C17.3155217,13.1372609 16.4933478,13.4782609 15.6347826,13.4782609 L14.0173913,13.4782609 C13.1588261,13.4782609 12.3366522,13.1372609 11.7301304,12.5307391 C11.1236087,11.9242174 10.7826087,11.1020435 10.7826087,10.2434783 L10.7826087,8.08695652 Z M16.173913,3.23478261 L16.173913,10.2434783 C16.173913,10.3863478 16.1173043,10.5238261 16.0162174,10.624913 C15.9151304,10.726 15.7776522,10.7826087 15.6347826,10.7826087 C15.6347826,10.7826087 14.0173913,10.7826087 14.0173913,10.7826087 C13.8745217,10.7826087 13.7370435,10.726 13.6359565,10.624913 C13.5348696,10.5238261 13.4782609,10.3863478 13.4782609,10.2434783 L13.4782609,3.23478261 C13.4782609,3.09191304 13.5348696,2.95443478 13.6359565,2.85334783 C13.7370435,2.75226087 13.8745217,2.69565217 14.0173913,2.69565217 C14.0173913,2.69565217 15.6347826,2.69565217 15.6347826,2.69565217 C15.7776522,2.69565217 15.9151304,2.75226087 16.0162174,2.85334783 C16.1173043,2.95443478 16.173913,3.09191304 16.173913,3.23478261 Z M48.5217391,3.23478261 L48.5217391,10.2434783 C48.5217391,10.3863478 48.4651304,10.5238261 48.3640435,10.624913 C48.2629565,10.726 48.1254783,10.7826087 47.9826087,10.7826087 C47.9826087,10.7826087 46.3652174,10.7826087 46.3652174,10.7826087 C46.2223478,10.7826087 46.0848696,10.726 45.9837826,10.624913 C45.8826957,10.5238261 45.826087,10.3863478 45.826087,10.2434783 L45.826087,3.23478261 C45.826087,3.09191304 45.8826957,2.95443478 45.9837826,2.85334783 C46.0848696,2.75226087 46.2223478,2.69565217 46.3652174,2.69565217 C46.3652174,2.69565217 47.9826087,2.69565217 47.9826087,2.69565217 C48.1254783,2.69565217 48.2629565,2.75226087 48.3640435,2.85334783 C48.4651304,2.95443478 48.5217391,3.09191304 48.5217391,3.23478261 Z"></path>
            </g>
        </g>
    </g>
</svg>