<?xml version="1.0" encoding="utf-8"?>
<!-- Generator: Adobe Illustrator 25.0.1, SVG Export Plug-In . SVG Version: 6.00 Build 0)  -->
<svg version="1.1" id="Layer_1" xmlns="http://www.w3.org/2000/svg" xmlns:xlink="http://www.w3.org/1999/xlink" x="0px" y="0px"
	 viewBox="0 0 50 60" style="enable-background:new 0 0 50 60;" xml:space="preserve">
<style type="text/css">
	.st0{fill:url(#SVGID_1_);}
	.st1{fill:url(#SVGID_2_);}
	.st2{fill:url(#SVGID_3_);}
	.st3{fill:url(#SVGID_4_);}
	.st4{fill:url(#SVGID_5_);}
	.st5{fill:url(#SVGID_6_);}
	.st6{fill:url(#SVGID_7_);}
	.st7{fill:url(#SVGID_8_);}
	.st8{fill:url(#SVGID_9_);}
</style>
<g>
	<g>
		
			<linearGradient id="SVGID_1_" gradientUnits="userSpaceOnUse" x1="41.9295" y1="-0.9425" x2="51.8991" y2="57.3546" gradientTransform="matrix(1 0 0 -1 0 61.4)">
			<stop  offset="0" style="stop-color:#004CB7"/>
			<stop  offset="0.3749" style="stop-color:#02A5EC"/>
			<stop  offset="0.6847" style="stop-color:#00D4C0"/>
			<stop  offset="1" style="stop-color:#03CC83"/>
		</linearGradient>
		<path class="st0" d="M41.8,48.3c-1.4,1.3-1.4,3.3-0.2,4.5c1.3,1.4,3.3,1.4,4.5,0.2c1.4-1.3,1.4-3.3,0.2-4.5
			C45,47.1,43,47,41.8,48.3z"/>
		
			<linearGradient id="SVGID_2_" gradientUnits="userSpaceOnUse" x1="33.8736" y1="0.4352" x2="43.8432" y2="58.7322" gradientTransform="matrix(1 0 0 -1 0 61.4)">
			<stop  offset="0" style="stop-color:#004CB7"/>
			<stop  offset="0.3749" style="stop-color:#02A5EC"/>
			<stop  offset="0.6847" style="stop-color:#00D4C0"/>
			<stop  offset="1" style="stop-color:#03CC83"/>
		</linearGradient>
		<path class="st1" d="M32.3,53.5c-1.4,1.4-1.5,3.6-0.2,5c1.4,1.4,3.6,1.5,5,0.2c1.4-1.4,1.5-3.6,0.2-5C36,52.2,33.7,52.1,32.3,53.5
			z"/>
		
			<linearGradient id="SVGID_3_" gradientUnits="userSpaceOnUse" x1="22.6481" y1="2.3549" x2="32.6177" y2="60.6521" gradientTransform="matrix(1 0 0 -1 0 61.4)">
			<stop  offset="0" style="stop-color:#004CB7"/>
			<stop  offset="0.3749" style="stop-color:#02A5EC"/>
			<stop  offset="0.6847" style="stop-color:#00D4C0"/>
			<stop  offset="1" style="stop-color:#03CC83"/>
		</linearGradient>
		<path class="st2" d="M20.5,52.5c-1.6,1.5-1.7,4.1-0.2,5.7c1.5,1.6,4.1,1.7,5.7,0.2s1.7-4.1,0.2-5.7C24.7,51.2,22.2,51.1,20.5,52.5
			z"/>
		
			<linearGradient id="SVGID_4_" gradientUnits="userSpaceOnUse" x1="11.6567" y1="4.2345" x2="21.6264" y2="62.5317" gradientTransform="matrix(1 0 0 -1 0 61.4)">
			<stop  offset="0" style="stop-color:#004CB7"/>
			<stop  offset="0.3749" style="stop-color:#02A5EC"/>
			<stop  offset="0.6847" style="stop-color:#00D4C0"/>
			<stop  offset="1" style="stop-color:#03CC83"/>
		</linearGradient>
		<path class="st3" d="M10.1,46c-1.7,1.6-1.8,4.3-0.2,6.1c1.6,1.7,4.3,1.8,6.1,0.2s1.8-4.3,0.2-6.1C14.6,44.5,11.9,44.4,10.1,46z"/>
		
			<linearGradient id="SVGID_5_" gradientUnits="userSpaceOnUse" x1="3.5508" y1="5.6207" x2="13.5205" y2="63.9179" gradientTransform="matrix(1 0 0 -1 0 61.4)">
			<stop  offset="0" style="stop-color:#004CB7"/>
			<stop  offset="0.3749" style="stop-color:#02A5EC"/>
			<stop  offset="0.6847" style="stop-color:#00D4C0"/>
			<stop  offset="1" style="stop-color:#03CC83"/>
		</linearGradient>
		<circle class="st4" cx="6.4" cy="39.1" r="4.9"/>
		
			<linearGradient id="SVGID_6_" gradientUnits="userSpaceOnUse" x1="1.1575" y1="6.03" x2="11.1272" y2="64.3272" gradientTransform="matrix(1 0 0 -1 0 61.4)">
			<stop  offset="0" style="stop-color:#004CB7"/>
			<stop  offset="0.3749" style="stop-color:#02A5EC"/>
			<stop  offset="0.6847" style="stop-color:#00D4C0"/>
			<stop  offset="1" style="stop-color:#03CC83"/>
		</linearGradient>
		<path class="st5" d="M9.8,30c2.1-2,2.3-5.3,0.3-7.5c-2-2.1-5.3-2.3-7.5-0.3c-2.1,2-2.3,5.3-0.3,7.5S7.7,32,9.8,30z"/>
		
			<linearGradient id="SVGID_7_" gradientUnits="userSpaceOnUse" x1="5.485" y1="5.29" x2="15.4546" y2="63.5871" gradientTransform="matrix(1 0 0 -1 0 61.4)">
			<stop  offset="0" style="stop-color:#004CB7"/>
			<stop  offset="0.3749" style="stop-color:#02A5EC"/>
			<stop  offset="0.6847" style="stop-color:#00D4C0"/>
			<stop  offset="1" style="stop-color:#03CC83"/>
		</linearGradient>
		<path class="st6" d="M8.8,9.5c-2.3,2.1-2.5,5.8-0.3,8.1s5.8,2.5,8.1,0.3c2.3-2.1,2.5-5.8,0.3-8.1C14.8,7.5,11.1,7.3,8.8,9.5z"/>
		
			<linearGradient id="SVGID_8_" gradientUnits="userSpaceOnUse" x1="17.2257" y1="3.2822" x2="27.1954" y2="61.5793" gradientTransform="matrix(1 0 0 -1 0 61.4)">
			<stop  offset="0" style="stop-color:#004CB7"/>
			<stop  offset="0.3749" style="stop-color:#02A5EC"/>
			<stop  offset="0.6847" style="stop-color:#00D4C0"/>
			<stop  offset="1" style="stop-color:#03CC83"/>
		</linearGradient>
		<circle class="st7" cx="26" cy="6.7" r="6.2"/>
		
			<linearGradient id="SVGID_9_" gradientUnits="userSpaceOnUse" x1="33.5358" y1="0.4929" x2="43.5054" y2="58.79" gradientTransform="matrix(1 0 0 -1 0 61.4)">
			<stop  offset="0" style="stop-color:#004CB7"/>
			<stop  offset="0.3749" style="stop-color:#02A5EC"/>
			<stop  offset="0.6847" style="stop-color:#00D4C0"/>
			<stop  offset="1" style="stop-color:#03CC83"/>
		</linearGradient>
		<path class="st8" d="M47,14.5c2.8-2.6,2.9-6.9,0.4-9.7s-6.9-2.9-9.7-0.4c-2.8,2.6-2.9,6.9-0.4,9.7C39.9,16.9,44.2,17.1,47,14.5z"
			/>
	</g>
</g>
</svg>
