<svg id="Layer_1" data-name="Layer 1" xmlns="http://www.w3.org/2000/svg" viewBox="0 0 100 100"><defs><style>.cls-1,.cls-2{fill:#f7505b;}.cls-1{opacity:0.2;}.cls-3{fill:#fff;}</style></defs><rect class="cls-1" width="100" height="100" rx="26.11"/><rect class="cls-2" x="5.39" y="5.43" width="89.13" height="89.13" rx="20.81"/><path class="cls-3" d="M74.17,77.3,58.91,72.87l15.26-4.44a2.5,2.5,0,1,0-1.39-4.8L50,70.27,27.13,63.63a2.5,2.5,0,0,0-1.4,4.8L41,72.87,25.73,77.3a2.5,2.5,0,0,0,.7,4.9,2.42,2.42,0,0,0,.7-.1L50,75.47,72.78,82.1a2.42,2.42,0,0,0,.7.1,2.5,2.5,0,0,0,.69-4.9Z"/><path class="cls-3" d="M64.45,62.5a2.48,2.48,0,0,1-1.4-.43,2.51,2.51,0,0,1-.68-3.47C68.52,49.48,63.21,38,59.91,33c-1.89,1.83-4.25,4.4-5.93,6.4a2.5,2.5,0,0,1-4.3-.86,58.08,58.08,0,0,0-6.3-14.32c-6.76,7.49-13.83,22.74-5.27,34.31a2.5,2.5,0,0,1-4,3c-6.48-8.75-8.41-28.5,8-43a2.49,2.49,0,0,1,3.69.41,55.73,55.73,0,0,1,7.28,14,56,56,0,0,1,5.67-5.53,2.5,2.5,0,0,1,3.42.31c5,5.7,12.65,21.45,4.36,33.75A2.49,2.49,0,0,1,64.45,62.5Z"/><path class="cls-3" d="M46.13,62.5a2.51,2.51,0,0,1-2.49-2.26L42.38,47.42a2.5,2.5,0,0,1,5-.49l1.27,12.82a2.5,2.5,0,0,1-2.24,2.73Z"/><path class="cls-3" d="M54.74,62.5l-.3,0a2.5,2.5,0,0,1-2.18-2.78l.85-7.18a2.5,2.5,0,1,1,5,.59l-.86,7.18A2.5,2.5,0,0,1,54.74,62.5Z"/></svg>