<?xml version="1.0" encoding="utf-8"?>
<!-- Generator: Adobe Illustrator 25.0.1, SVG Export Plug-In . SVG Version: 6.00 Build 0)  -->
<svg version="1.1" id="Layer_1" xmlns="http://www.w3.org/2000/svg" xmlns:xlink="http://www.w3.org/1999/xlink" x="0px" y="0px"
	 viewBox="0 0 100 100" style="enable-background:new 0 0 100 100;" xml:space="preserve">
<style type="text/css">
	.st0{opacity:0.2;fill:#7932CA;}
	.st1{fill:#7932CA;}
	.st2{fill:#FFFFFF;}
</style>
<path class="st0" d="M73.9,100H26.1C11.7,100,0,88.3,0,73.9V26.1C0,11.7,11.7,0,26.1,0h47.8C88.3,0,100,11.7,100,26.1v47.8
	C100,88.3,88.3,100,73.9,100z"/>
<path class="st1" d="M73.7,94.6H26.2c-11.5,0-20.8-9.3-20.8-20.8V26.2c0-11.5,9.3-20.8,20.8-20.8h47.5c11.5,0,20.8,9.3,20.8,20.8
	v47.5C94.5,85.3,85.2,94.6,73.7,94.6z"/>
<path class="st2" d="M78.1,35.9c0-0.2,0-0.3-0.1-0.5c0-0.1,0-0.1,0-0.2c-0.1-0.2-0.1-0.4-0.2-0.5c0,0,0,0,0,0
	c-0.1-0.2-0.2-0.3-0.4-0.5c0,0-0.1-0.1-0.1-0.1c-0.1-0.1-0.2-0.2-0.4-0.3c0,0-0.1,0-0.1-0.1L51.2,19c-0.8-0.4-1.7-0.4-2.5,0L23,33.8
	c0,0,0,0-0.1,0.1c-0.1,0.1-0.3,0.2-0.4,0.3c0,0-0.1,0.1-0.1,0.1c-0.1,0.1-0.3,0.3-0.4,0.5c-0.1,0.2-0.2,0.4-0.2,0.5
	c0,0.1,0,0.1,0,0.2c0,0.2-0.1,0.3-0.1,0.5c0,0,0,0.1,0,0.1v29.7c0,0.9,0.5,1.7,1.2,2.2l25.7,14.8c0,0,0.1,0,0.1,0
	c0.1,0.1,0.3,0.1,0.4,0.2c0.1,0,0.1,0,0.2,0c0.2,0,0.4,0.1,0.6,0.1s0.4,0,0.6-0.1c0.1,0,0.1,0,0.2,0c0.1,0,0.3-0.1,0.4-0.2
	c0,0,0.1,0,0.1,0l25.7-14.8c0.8-0.4,1.2-1.3,1.2-2.2L78.1,35.9C78.2,35.9,78.1,35.9,78.1,35.9z M50,24L70.7,36L50,47.9L29.3,36
	L50,24z M26.8,40.3l20.7,11.9v23.9L26.8,64.2V40.3z M52.5,76.1V52.2l20.7-11.9v23.9L52.5,76.1z"/>
</svg>
