<?xml version="1.0" encoding="utf-8"?>
<!-- Generator: Adobe Illustrator 25.0.1, SVG Export Plug-In . SVG Version: 6.00 Build 0)  -->
<svg version="1.1" id="Layer_1" xmlns="http://www.w3.org/2000/svg" xmlns:xlink="http://www.w3.org/1999/xlink" x="0px" y="0px"
	 viewBox="0 0 100 100" style="enable-background:new 0 0 100 100;" xml:space="preserve">
<style type="text/css">
	.st0{opacity:0.21;fill:#008EFF;enable-background:new    ;}
	.st1{fill:#008EFF;}
	.st2{fill:#FFFFFF;}
</style>
<path class="st0" d="M50,0L50,0c27.6,0,50,22.4,50,50v0c0,27.6-22.4,50-50,50h0C22.4,100,0,77.6,0,50v0C0,22.4,22.4,0,50,0z"/>
<path class="st1" d="M50,5.4L50,5.4c24.6,0,44.6,20,44.6,44.6v0c0,24.6-20,44.6-44.6,44.6h0c-24.6,0-44.6-20-44.6-44.6v0
	C5.4,25.4,25.3,5.4,50,5.4z"/>
<path class="st2" d="M50,35c-2.7,0-4.9-2.2-4.9-4.9s2.2-4.9,4.9-4.9c2.7,0,4.9,2.2,4.9,4.9C54.9,32.8,52.7,35,50,35z M50,30
	c-0.1,0-0.1,0.1-0.1,0.1c0,0.1,0.3,0.1,0.3,0C50.1,30.1,50.1,30,50,30z"/>
<path class="st2" d="M58.6,76.1c-6.1,0-11-4.9-11-11V47.8h-9.5c-1.4,0-2.5-1.1-2.5-2.5s1.1-2.5,2.5-2.5h12c1.4,0,2.5,1.1,2.5,2.5
	v19.8c0,3.3,2.7,6,6,6c2.1,0,4.1-1.2,5.2-3c0.7-1.2,2.2-1.6,3.4-0.9c1.2,0.7,1.6,2.2,0.9,3.4C66.2,74,62.6,76.1,58.6,76.1z"/>
</svg>
