<?xml version="1.0" encoding="utf-8"?>
<!-- Svg Vector Icons : http://www.onlinewebfonts.com/icon -->
<!DOCTYPE svg PUBLIC "-//W3C//DTD SVG 1.1//EN" "http://www.w3.org/Graphics/SVG/1.1/DTD/svg11.dtd">
<svg version="1.1" xmlns="http://www.w3.org/2000/svg" xmlns:xlink="http://www.w3.org/1999/xlink" x="0px" y="0px" viewBox="0 0 1000 1000" enable-background="new 0 0 1000 1000" xml:space="preserve">
<metadata> Svg Vector Icons : http://www.onlinewebfonts.com/icon </metadata>
<g><g><path id="LinkedIn" d="M990,605.9v362.3H780v-338c0-84.9-30.4-142.9-106.4-142.9c-58,0-92.6,39.1-107.8,76.8c-5.5,13.5-7,32.3-7,51.2v352.9H348.7c0,0,2.8-572.5,0-631.9h210.1v89.6c-0.4,0.7-1,1.4-1.4,2h1.4v-2c27.9-43,77.8-104.4,189.3-104.4C886.4,321.5,990,411.8,990,605.9z M128.9,31.8C57,31.8,10,78.9,10,140.9c0,60.7,45.7,109.2,116.1,109.2h1.4c73.3,0,118.8-48.6,118.8-109.2C245,78.9,200.8,31.8,128.9,31.8z M22.5,968.2h210V336.4h-210V968.2z"/></g><g></g><g></g><g></g><g></g><g></g><g></g><g></g><g></g><g></g><g></g><g></g><g></g><g></g><g></g><g></g></g>
</svg>