<?xml version="1.0" encoding="UTF-8" standalone="no"?>
<svg
   xmlns:dc="http://purl.org/dc/elements/1.1/"
   xmlns:cc="http://creativecommons.org/ns#"
   xmlns:rdf="http://www.w3.org/1999/02/22-rdf-syntax-ns#"
   xmlns:svg="http://www.w3.org/2000/svg"
   xmlns="http://www.w3.org/2000/svg"
   xmlns:sodipodi="http://sodipodi.sourceforge.net/DTD/sodipodi-0.dtd"
   xmlns:inkscape="http://www.inkscape.org/namespaces/inkscape"
   version="1.1"
   id="svg862"
   xml:space="preserve"
   width="2800"
   height="2800"
   viewBox="0 0 2800 2800"
   sodipodi:docname="bank-icon.svg"
   inkscape:version="1.0.2-2 (e86c870879, 2021-01-15)"><metadata
     id="metadata868"><rdf:RDF><cc:Work
         rdf:about=""><dc:format>image/svg+xml</dc:format><dc:type
           rdf:resource="http://purl.org/dc/dcmitype/StillImage" /><dc:title></dc:title></cc:Work></rdf:RDF></metadata><defs
     id="defs866"><clipPath
       clipPathUnits="userSpaceOnUse"
       id="clipPath880"><path
         d="M 1763.568,417.21 H 355.342 v 846.53 h 1408.226 z"
         id="path878" /></clipPath><linearGradient
       x1="0"
       y1="0"
       x2="1"
       y2="0"
       gradientUnits="userSpaceOnUse"
       gradientTransform="matrix(0,-1097.8655,-1097.8655,0,1059.4553,1234.3562)"
       spreadMethod="pad"
       id="linearGradient896"><stop
         style="stop-opacity:1;stop-color:#6d6d6d"
         offset="0"
         id="stop886" /><stop
         style="stop-opacity:1;stop-color:#6d6d6d"
         offset="0.005376"
         id="stop888" /><stop
         style="stop-opacity:1;stop-color:#a0a0a0"
         offset="0.92481812"
         id="stop890" /><stop
         style="stop-opacity:1;stop-color:#a0a0a0"
         offset="0.994898"
         id="stop892" /><stop
         style="stop-opacity:1;stop-color:#a0a0a0"
         offset="1"
         id="stop894" /></linearGradient><clipPath
       clipPathUnits="userSpaceOnUse"
       id="clipPath908"><path
         d="M 1163.511,435.877 H 955.4 v 570.754 h 208.111 z"
         id="path906" /></clipPath><linearGradient
       x1="0"
       y1="0"
       x2="1"
       y2="0"
       gradientUnits="userSpaceOnUse"
       gradientTransform="matrix(0,515.65839,515.65839,0,1059.4553,438.9776)"
       spreadMethod="pad"
       id="linearGradient924"><stop
         style="stop-opacity:1;stop-color:#939393"
         offset="0"
         id="stop914" /><stop
         style="stop-opacity:1;stop-color:#939393"
         offset="0.00510204"
         id="stop916" /><stop
         style="stop-opacity:1;stop-color:#939393"
         offset="0.07518192"
         id="stop918" /><stop
         style="stop-opacity:1;stop-color:#555555"
         offset="0.994624"
         id="stop920" /><stop
         style="stop-opacity:1;stop-color:#555555"
         offset="1"
         id="stop922" /></linearGradient><clipPath
       clipPathUnits="userSpaceOnUse"
       id="clipPath934"><path
         d="M 523.519,417.21 H 355.342 v 846.53 h 168.177 z"
         id="path932" /></clipPath><linearGradient
       x1="0"
       y1="0"
       x2="1"
       y2="0"
       gradientUnits="userSpaceOnUse"
       gradientTransform="matrix(214.64754,0,0,-214.64754,340.65103,840.47479)"
       spreadMethod="pad"
       id="linearGradient950"><stop
         style="stop-opacity:1;stop-color:#a2a2a2"
         offset="0"
         id="stop940" /><stop
         style="stop-opacity:1;stop-color:#a2a2a2"
         offset="0.005376"
         id="stop942" /><stop
         style="stop-opacity:1;stop-color:#cccccc"
         offset="0.35757722"
         id="stop944" /><stop
         style="stop-opacity:1;stop-color:#cccccc"
         offset="0.384422"
         id="stop946" /><stop
         style="stop-opacity:1;stop-color:#939393"
         offset="1"
         id="stop948" /></linearGradient><clipPath
       clipPathUnits="userSpaceOnUse"
       id="clipPath960"><path
         d="M 840.12,417.21 H 671.944 v 846.53 H 840.12 Z"
         id="path958" /></clipPath><linearGradient
       x1="0"
       y1="0"
       x2="1"
       y2="0"
       gradientUnits="userSpaceOnUse"
       gradientTransform="matrix(214.64716,0,0,-214.64716,657.25244,840.47479)"
       spreadMethod="pad"
       id="linearGradient976"><stop
         style="stop-opacity:1;stop-color:#a2a2a2"
         offset="0"
         id="stop966" /><stop
         style="stop-opacity:1;stop-color:#a2a2a2"
         offset="0.005376"
         id="stop968" /><stop
         style="stop-opacity:1;stop-color:#cccccc"
         offset="0.35757722"
         id="stop970" /><stop
         style="stop-opacity:1;stop-color:#cccccc"
         offset="0.384422"
         id="stop972" /><stop
         style="stop-opacity:1;stop-color:#939393"
         offset="1"
         id="stop974" /></linearGradient><clipPath
       clipPathUnits="userSpaceOnUse"
       id="clipPath986"><path
         d="m 1605.467,417.21 h 168.177 v 846.53 h -168.177 z"
         id="path984" /></clipPath><linearGradient
       x1="0"
       y1="0"
       x2="1"
       y2="0"
       gradientUnits="userSpaceOnUse"
       gradientTransform="matrix(214.64754,0,0,-214.64754,1590.7754,840.47479)"
       spreadMethod="pad"
       id="linearGradient1002"><stop
         style="stop-opacity:1;stop-color:#a2a2a2"
         offset="0"
         id="stop992" /><stop
         style="stop-opacity:1;stop-color:#a2a2a2"
         offset="0.005376"
         id="stop994" /><stop
         style="stop-opacity:1;stop-color:#cccccc"
         offset="0.35757722"
         id="stop996" /><stop
         style="stop-opacity:1;stop-color:#cccccc"
         offset="0.384422"
         id="stop998" /><stop
         style="stop-opacity:1;stop-color:#939393"
         offset="1"
         id="stop1000" /></linearGradient><clipPath
       clipPathUnits="userSpaceOnUse"
       id="clipPath1012"><path
         d="m 1288.865,417.21 h 168.177 v 846.53 h -168.177 z"
         id="path1010" /></clipPath><linearGradient
       x1="0"
       y1="0"
       x2="1"
       y2="0"
       gradientUnits="userSpaceOnUse"
       gradientTransform="matrix(214.64716,0,0,-214.64716,1274.1743,840.47479)"
       spreadMethod="pad"
       id="linearGradient1028"><stop
         style="stop-opacity:1;stop-color:#a2a2a2"
         offset="0"
         id="stop1018" /><stop
         style="stop-opacity:1;stop-color:#a2a2a2"
         offset="0.005376"
         id="stop1020" /><stop
         style="stop-opacity:1;stop-color:#cccccc"
         offset="0.35757722"
         id="stop1022" /><stop
         style="stop-opacity:1;stop-color:#cccccc"
         offset="0.384422"
         id="stop1024" /><stop
         style="stop-opacity:1;stop-color:#939393"
         offset="1"
         id="stop1026" /></linearGradient><clipPath
       clipPathUnits="userSpaceOnUse"
       id="clipPath1038"><path
         d="M 0,2100 H 2100 V 0 H 0 Z"
         id="path1036" /></clipPath><clipPath
       clipPathUnits="userSpaceOnUse"
       id="clipPath1046"><path
         d="M 355.341,1250.81 H 1773.64 v -75.16 H 355.341 Z"
         id="path1044" /></clipPath><clipPath
       clipPathUnits="userSpaceOnUse"
       id="clipPath1050"><path
         d="m 1605.467,1175.646 h 168.177 v 75.167 h -168.177 z"
         id="path1048" /></clipPath><linearGradient
       x1="0"
       y1="0"
       x2="1"
       y2="0"
       gradientUnits="userSpaceOnUse"
       gradientTransform="matrix(0,67.910965,67.910965,0,1689.5554,1176.054)"
       spreadMethod="pad"
       id="linearGradient1062"><stop
         style="stop-opacity:1;stop-color:#cccccc"
         offset="0"
         id="stop1052" /><stop
         style="stop-opacity:1;stop-color:#cccccc"
         offset="0.00510204"
         id="stop1054" /><stop
         style="stop-opacity:1;stop-color:#cccccc"
         offset="0.07518192"
         id="stop1056" /><stop
         style="stop-opacity:1;stop-color:#969696"
         offset="0.994624"
         id="stop1058" /><stop
         style="stop-opacity:1;stop-color:#969696"
         offset="1"
         id="stop1060" /></linearGradient><clipPath
       clipPathUnits="userSpaceOnUse"
       id="clipPath1066"><path
         d="M 355.341,1175.646 H 523.52 v 75.167 H 355.341 Z"
         id="path1064" /></clipPath><linearGradient
       x1="0"
       y1="0"
       x2="1"
       y2="0"
       gradientUnits="userSpaceOnUse"
       gradientTransform="matrix(0,67.910965,67.910965,0,439.43073,1176.054)"
       spreadMethod="pad"
       id="linearGradient1078"><stop
         style="stop-opacity:1;stop-color:#cccccc"
         offset="0"
         id="stop1068" /><stop
         style="stop-opacity:1;stop-color:#cccccc"
         offset="0.00510204"
         id="stop1070" /><stop
         style="stop-opacity:1;stop-color:#cccccc"
         offset="0.07518192"
         id="stop1072" /><stop
         style="stop-opacity:1;stop-color:#969696"
         offset="0.994624"
         id="stop1074" /><stop
         style="stop-opacity:1;stop-color:#969696"
         offset="1"
         id="stop1076" /></linearGradient><clipPath
       clipPathUnits="userSpaceOnUse"
       id="clipPath1082"><path
         d="m 1288.865,1175.646 h 168.177 v 75.167 h -168.177 z"
         id="path1080" /></clipPath><linearGradient
       x1="0"
       y1="0"
       x2="1"
       y2="0"
       gradientUnits="userSpaceOnUse"
       gradientTransform="matrix(0,67.910965,67.910965,0,1372.9534,1176.054)"
       spreadMethod="pad"
       id="linearGradient1094"><stop
         style="stop-opacity:1;stop-color:#cccccc"
         offset="0"
         id="stop1084" /><stop
         style="stop-opacity:1;stop-color:#cccccc"
         offset="0.00510204"
         id="stop1086" /><stop
         style="stop-opacity:1;stop-color:#cccccc"
         offset="0.07518192"
         id="stop1088" /><stop
         style="stop-opacity:1;stop-color:#969696"
         offset="0.994624"
         id="stop1090" /><stop
         style="stop-opacity:1;stop-color:#969696"
         offset="1"
         id="stop1092" /></linearGradient><clipPath
       clipPathUnits="userSpaceOnUse"
       id="clipPath1098"><path
         d="M 671.944,1175.646 H 840.12 v 75.167 H 671.944 Z"
         id="path1096" /></clipPath><linearGradient
       x1="0"
       y1="0"
       x2="1"
       y2="0"
       gradientUnits="userSpaceOnUse"
       gradientTransform="matrix(0,67.910965,67.910965,0,756.03198,1176.054)"
       spreadMethod="pad"
       id="linearGradient1110"><stop
         style="stop-opacity:1;stop-color:#cccccc"
         offset="0"
         id="stop1100" /><stop
         style="stop-opacity:1;stop-color:#cccccc"
         offset="0.00510204"
         id="stop1102" /><stop
         style="stop-opacity:1;stop-color:#cccccc"
         offset="0.07518192"
         id="stop1104" /><stop
         style="stop-opacity:1;stop-color:#969696"
         offset="0.994624"
         id="stop1106" /><stop
         style="stop-opacity:1;stop-color:#969696"
         offset="1"
         id="stop1108" /></linearGradient><clipPath
       clipPathUnits="userSpaceOnUse"
       id="clipPath1162"><path
         d="m 206.475,1293.196 c -37.298,-18.585 -24.071,-74.785 17.602,-74.785 v 0 h 1702.287 c 41.672,0 54.899,56.2 17.601,74.785 v 0 l -868.745,467.595 z"
         id="path1160" /></clipPath><linearGradient
       x1="0"
       y1="0"
       x2="1"
       y2="0"
       gradientUnits="userSpaceOnUse"
       gradientTransform="matrix(0,490.02325,490.02325,0,1075.2198,1221.3575)"
       spreadMethod="pad"
       id="linearGradient1178"><stop
         style="stop-opacity:1;stop-color:#cccccc"
         offset="0"
         id="stop1168" /><stop
         style="stop-opacity:1;stop-color:#cccccc"
         offset="0.00510204"
         id="stop1170" /><stop
         style="stop-opacity:1;stop-color:#cccccc"
         offset="0.07518192"
         id="stop1172" /><stop
         style="stop-opacity:1;stop-color:#969696"
         offset="0.994624"
         id="stop1174" /><stop
         style="stop-opacity:1;stop-color:#969696"
         offset="1"
         id="stop1176" /></linearGradient><clipPath
       clipPathUnits="userSpaceOnUse"
       id="clipPath1188"><path
         d="m 293.593,1275.385 h 1563.252 l -781.622,420.703 z"
         id="path1186" /></clipPath><linearGradient
       x1="0"
       y1="0"
       x2="1"
       y2="0"
       gradientUnits="userSpaceOnUse"
       gradientTransform="matrix(0,-545.60986,-545.60986,0,1075.219,1681.4847)"
       spreadMethod="pad"
       id="linearGradient1204"><stop
         style="stop-opacity:1;stop-color:#848484"
         offset="0"
         id="stop1194" /><stop
         style="stop-opacity:1;stop-color:#848484"
         offset="0.005376"
         id="stop1196" /><stop
         style="stop-opacity:1;stop-color:#b4b4b4"
         offset="0.92481812"
         id="stop1198" /><stop
         style="stop-opacity:1;stop-color:#b4b4b4"
         offset="0.994898"
         id="stop1200" /><stop
         style="stop-opacity:1;stop-color:#b4b4b4"
         offset="1"
         id="stop1202" /></linearGradient><clipPath
       clipPathUnits="userSpaceOnUse"
       id="clipPath1214"><path
         d="M 0,2100 H 2100 V 0 H 0 Z"
         id="path1212" /></clipPath><clipPath
       clipPathUnits="userSpaceOnUse"
       id="clipPath1222"><path
         d="M 293.593,1696.09 H 1856.85 V 1275.38 H 293.593 Z"
         id="path1220" /></clipPath><clipPath
       clipPathUnits="userSpaceOnUse"
       id="clipPath1238"><path
         d="m 230.819,539 c -9.024,0 -16.339,-7.315 -16.339,-16.34 v 0 -89.111 c 0,-9.024 7.315,-16.339 16.339,-16.339 v 0 h 1657.272 c 9.024,0 16.34,7.315 16.34,16.339 v 0 89.111 c 0,9.025 -7.316,16.34 -16.34,16.34 v 0 z"
         id="path1236" /></clipPath><linearGradient
       x1="0"
       y1="0"
       x2="1"
       y2="0"
       gradientUnits="userSpaceOnUse"
       gradientTransform="matrix(0,-157.9501,-157.9501,0,1059.4553,534.77252)"
       spreadMethod="pad"
       id="linearGradient1254"><stop
         style="stop-opacity:1;stop-color:#cccccc"
         offset="0"
         id="stop1244" /><stop
         style="stop-opacity:1;stop-color:#cccccc"
         offset="0.00510204"
         id="stop1246" /><stop
         style="stop-opacity:1;stop-color:#cccccc"
         offset="0.07518192"
         id="stop1248" /><stop
         style="stop-opacity:1;stop-color:#969696"
         offset="0.994624"
         id="stop1250" /><stop
         style="stop-opacity:1;stop-color:#969696"
         offset="1"
         id="stop1252" /></linearGradient><clipPath
       clipPathUnits="userSpaceOnUse"
       id="clipPath1264"><path
         d="M 0,2100 H 2100 V 0 H 0 Z"
         id="path1262" /></clipPath><clipPath
       clipPathUnits="userSpaceOnUse"
       id="clipPath1272"><path
         d="M 870.616,1475.43 H 1326.78 V 1343.2 H 870.616 Z"
         id="path1270" /></clipPath><clipPath
       clipPathUnits="userSpaceOnUse"
       id="clipPath1316"><path
         d="m 1097.855,791.385 c 0,-12.044 9.766,-21.809 21.811,-21.809 v 0 c 12.046,0 21.81,9.765 21.81,21.809 v 0 c 0,12.047 -9.764,21.811 -21.81,21.811 v 0 c -12.045,0 -21.811,-9.764 -21.811,-21.811"
         id="path1314" /></clipPath><radialGradient
       fx="0"
       fy="0"
       cx="0"
       cy="0"
       r="1"
       gradientUnits="userSpaceOnUse"
       gradientTransform="matrix(21.810274,0,0,-21.810274,1119.6663,791.38623)"
       spreadMethod="pad"
       id="radialGradient1328"><stop
         style="stop-opacity:1;stop-color:#f2f3f4"
         offset="0"
         id="stop1322" /><stop
         style="stop-opacity:1;stop-color:#f2f3f4"
         offset="0.17283593"
         id="stop1324" /><stop
         style="stop-opacity:1;stop-color:#68666b"
         offset="1"
         id="stop1326" /></radialGradient></defs><sodipodi:namedview
     pagecolor="#ffffff"
     bordercolor="#666666"
     borderopacity="1"
     objecttolerance="10"
     gridtolerance="10"
     guidetolerance="10"
     inkscape:pageopacity="0"
     inkscape:pageshadow="2"
     inkscape:window-width="1646"
     inkscape:window-height="911"
     id="namedview864"
     showgrid="false"
     inkscape:zoom="0.27285714"
     inkscape:cx="1400"
     inkscape:cy="1400"
     inkscape:window-x="0"
     inkscape:window-y="0"
     inkscape:window-maximized="0"
     inkscape:current-layer="g870" /><g
     id="g870"
     inkscape:groupmode="layer"
     inkscape:label="vectorstock_31748384"
     transform="matrix(1.3333333,0,0,-1.3333333,0,2800)"><path
       d="M 0,0 H 2100 V 2100 H 0 Z"
       style="fill:#ffffff;fill-opacity:1;fill-rule:nonzero;stroke:none"
       id="path872" /><g
       id="g874"><g
         id="g876"
         clip-path="url(#clipPath880)"><g
           id="g882"><g
             id="g884"><path
               d="M 1763.568,417.21 H 355.342 v 846.53 h 1408.226 z"
               style="fill:url(#linearGradient896);stroke:none"
               id="path898" /></g></g></g></g><path
       d="M 1182.178,417.21 H 936.733 v 608.088 h 245.445 z"
       style="fill:#3d3f40;fill-opacity:1;fill-rule:nonzero;stroke:none"
       id="path900" /><g
       id="g902"><g
         id="g904"
         clip-path="url(#clipPath908)"><g
           id="g910"><g
             id="g912"><path
               d="M 1163.511,435.877 H 955.4 v 570.754 h 208.111 z"
               style="fill:url(#linearGradient924);stroke:none"
               id="path926" /></g></g></g></g><g
       id="g928"><g
         id="g930"
         clip-path="url(#clipPath934)"><g
           id="g936"><g
             id="g938"><path
               d="M 523.519,417.21 H 355.342 v 846.53 h 168.177 z"
               style="fill:url(#linearGradient950);stroke:none"
               id="path952" /></g></g></g></g><g
       id="g954"><g
         id="g956"
         clip-path="url(#clipPath960)"><g
           id="g962"><g
             id="g964"><path
               d="M 840.12,417.21 H 671.944 v 846.53 H 840.12 Z"
               style="fill:url(#linearGradient976);stroke:none"
               id="path978" /></g></g></g></g><g
       id="g980"><g
         id="g982"
         clip-path="url(#clipPath986)"><g
           id="g988"><g
             id="g990"><path
               d="m 1605.467,417.21 h 168.177 v 846.53 h -168.177 z"
               style="fill:url(#linearGradient1002);stroke:none"
               id="path1004" /></g></g></g></g><g
       id="g1006"><g
         id="g1008"
         clip-path="url(#clipPath1012)"><g
           id="g1014"><g
             id="g1016"><path
               d="m 1288.865,417.21 h 168.177 v 846.53 h -168.177 z"
               style="fill:url(#linearGradient1028);stroke:none"
               id="path1030" /></g></g></g></g><g
       id="g1032"><g
         id="g1034"
         clip-path="url(#clipPath1038)"><g
           id="g1040"><g
             id="g1042" /><g
             id="g1154"><g
               clip-path="url(#clipPath1046)"
               id="g1152"><g
                 id="g1120"><g
                   clip-path="url(#clipPath1050)"
                   id="g1118"><g
                     id="g1116"><g
                       id="g1114"><path
                         d="m 1605.467,1175.646 h 168.177 v 75.167 h -168.177 z"
                         style="fill:url(#linearGradient1062);stroke:none"
                         id="path1112" /></g></g></g></g><g
                 id="g1130"><g
                   clip-path="url(#clipPath1066)"
                   id="g1128"><g
                     id="g1126"><g
                       id="g1124"><path
                         d="M 355.341,1175.646 H 523.52 v 75.167 H 355.341 Z"
                         style="fill:url(#linearGradient1078);stroke:none"
                         id="path1122" /></g></g></g></g><g
                 id="g1140"><g
                   clip-path="url(#clipPath1082)"
                   id="g1138"><g
                     id="g1136"><g
                       id="g1134"><path
                         d="m 1288.865,1175.646 h 168.177 v 75.167 h -168.177 z"
                         style="fill:url(#linearGradient1094);stroke:none"
                         id="path1132" /></g></g></g></g><g
                 id="g1150"><g
                   clip-path="url(#clipPath1098)"
                   id="g1148"><g
                     id="g1146"><g
                       id="g1144"><path
                         d="M 671.944,1175.646 H 840.12 v 75.167 H 671.944 Z"
                         style="fill:url(#linearGradient1110);stroke:none"
                         id="path1142" /></g></g></g></g></g></g></g></g></g><g
       id="g1156"><g
         id="g1158"
         clip-path="url(#clipPath1162)"><g
           id="g1164"><g
             id="g1166"><path
               d="m 206.475,1293.196 c -37.298,-18.585 -24.071,-74.785 17.602,-74.785 v 0 h 1702.287 c 41.672,0 54.899,56.2 17.601,74.785 v 0 l -868.745,467.595 z"
               style="fill:url(#linearGradient1178);stroke:none"
               id="path1180" /></g></g></g></g><g
       id="g1182"><g
         id="g1184"
         clip-path="url(#clipPath1188)"><g
           id="g1190"><g
             id="g1192"><path
               d="m 293.593,1275.385 h 1563.252 l -781.622,420.703 z"
               style="fill:url(#linearGradient1204);stroke:none"
               id="path1206" /></g></g></g></g><g
       id="g1208"><g
         id="g1210"
         clip-path="url(#clipPath1214)"><g
           id="g1216"><g
             id="g1218" /><g
             id="g1230"><g
               clip-path="url(#clipPath1222)"
               id="g1228"><g
                 transform="translate(1075.2227,1652.0308)"
                 id="g1226"><path
                   d="m 0,0 699.77,-376.646 h 81.852 L 0,44.057 -781.63,-376.646 h 81.854 z"
                   style="fill:#edeeef;fill-opacity:1;fill-rule:nonzero;stroke:none"
                   id="path1224" /></g></g></g></g></g></g><g
       id="g1232"><g
         id="g1234"
         clip-path="url(#clipPath1238)"><g
           id="g1240"><g
             id="g1242"><path
               d="m 230.819,539 c -9.024,0 -16.339,-7.315 -16.339,-16.34 v 0 -89.111 c 0,-9.024 7.315,-16.339 16.339,-16.339 v 0 h 1657.272 c 9.024,0 16.34,7.315 16.34,16.339 v 0 89.111 c 0,9.025 -7.316,16.34 -16.34,16.34 v 0 z"
               style="fill:url(#linearGradient1254);stroke:none"
               id="path1256" /></g></g></g></g><g
       id="g1258"><g
         id="g1260"
         clip-path="url(#clipPath1264)"><g
           id="g1266"><g
             id="g1268" /><g
             id="g1292"><g
               clip-path="url(#clipPath1272)"
               id="g1290"><g
                 transform="translate(902.1372,1364.0137)"
                 id="g1276"><path
                   d="M 0,0 C 2.717,-0.361 5.971,-0.361 10.678,-0.361 23.161,-0.361 34.2,4.341 34.2,17.19 34.2,29.493 23.161,34.381 9.41,34.381 H 0 Z m 0,54.103 h 9.049 c 14.478,0 22.259,5.97 22.259,15.02 0,9.229 -7.059,14.111 -19.547,14.111 C 5.79,83.234 2.356,82.874 0,82.513 Z m -31.521,-64.106 c 7.239,1.449 26.096,113.326 39.848,113.326 16.824,0 27.141,-1.63 36.005,-6.879 8.507,-4.522 14.659,-12.849 14.659,-23.882 0,-10.859 -6.332,-20.991 -20.084,-26.06 v -0.36 C 52.839,42.342 63.151,31.849 63.151,16.103 63.151,5.068 58.083,-3.62 50.488,-9.771 41.62,-16.83 26.781,-20.81 2.537,-20.81 c -13.571,0 -23.708,0.908 -29.859,1.81 z"
                   style="fill:#aeafb2;fill-opacity:1;fill-rule:nonzero;stroke:none"
                   id="path1274" /></g><g
                 transform="translate(1042.7231,1396.4043)"
                 id="g1280"><path
                   d="m 0,0 -7.6,25.873 c -2.171,7.239 -4.342,16.288 -6.151,23.522 h -0.361 c -1.81,-7.234 -3.62,-16.463 -5.61,-23.522 L -26.961,0 Z m -30.942,-20.629 -8.688,-31.303 h -28.585 l -4.199,8.997 43,117.958 30.464,3.999 8.571,-4.654 37.64,-126.3 H 13.39 l -4.198,8.997 -5.212,22.306 z"
                   style="fill:#aeafb2;fill-opacity:1;fill-rule:nonzero;stroke:none"
                   id="path1278" /></g><g
                 transform="translate(1102.0547,1344.4722)"
                 id="g1284"><path
                   d="M 0,0 -4.199,8.997 0,121.957 H 32.21 L 57.542,77.264 C 64.78,64.415 72.015,49.22 77.444,35.463 h 0.546 c -1.809,16.108 -2.355,32.572 -2.355,50.85 v 35.644 l 21.137,8.997 4.2,-8.997 0,-121.957 H 72.015 L 45.961,47.044 c -7.239,13.03 -15.2,28.771 -21.171,43.069 l -0.541,-0.181 c 0.722,-16.107 1.083,-33.298 1.083,-53.2 L 25.332,0 Z"
                   style="fill:#aeafb2;fill-opacity:1;fill-rule:nonzero;stroke:none"
                   id="path1282" /></g><g
                 transform="translate(1226.8936,1466.4292)"
                 id="g1288"><path
                   d="M 0,0 23.124,8.997 27.322,0 v -53.922 h 0.547 c 2.712,4.707 5.61,9.048 8.322,13.39 L 63.874,0 93.515,8.997 97.713,0 57.361,-51.932 l 38.325,-61.028 4.198,-8.997 H 67.674 L 37.82,-69.303 27.322,-82.147 v -39.81 H 0 l -4.198,8.997 z"
                   style="fill:#aeafb2;fill-opacity:1;fill-rule:nonzero;stroke:none"
                   id="path1286" /></g></g></g></g><g
           id="g1294"
           transform="translate(897.9385,1373.0107)"><path
             d="M 0,0 C 2.717,-0.361 5.971,-0.361 10.678,-0.361 23.161,-0.361 34.2,4.341 34.2,17.19 34.2,29.493 23.161,34.381 9.41,34.381 H 0 Z m 0,54.103 h 9.049 c 14.478,0 22.259,5.97 22.259,15.019 0,9.23 -7.059,14.112 -19.547,14.112 C 5.79,83.234 2.356,82.874 0,82.513 Z m -27.322,46.683 c 7.239,1.448 21.898,2.537 35.649,2.537 16.824,0 27.141,-1.63 36.005,-6.879 8.507,-4.522 14.659,-12.849 14.659,-23.882 0,-10.859 -6.332,-20.991 -20.083,-26.06 v -0.36 C 52.839,42.342 63.152,31.849 63.152,16.103 63.152,5.068 58.083,-3.62 50.488,-9.771 41.62,-16.83 26.781,-20.81 2.537,-20.81 c -13.571,0 -23.708,0.908 -29.859,1.81 z"
             style="fill:#d8dadc;fill-opacity:1;fill-rule:nonzero;stroke:none"
             id="path1296" /></g><g
           id="g1298"
           transform="translate(1038.5244,1405.4014)"><path
             d="m 0,0 -7.6,25.873 c -2.171,7.239 -4.341,16.288 -6.151,23.522 h -0.361 c -1.81,-7.234 -3.62,-16.463 -5.61,-23.522 L -26.961,0 Z M -30.941,-20.629 -39.63,-51.932 H -68.215 L -30.941,70.025 H 5.249 L 43.063,-51.932 H 13.391 L 3.98,-20.629 Z"
             style="fill:#d8dadc;fill-opacity:1;fill-rule:nonzero;stroke:none"
             id="path1300" /></g><g
           id="g1302"
           transform="translate(1097.8555,1353.4692)"><path
             d="M 0,0 V 121.957 H 32.21 L 57.542,77.264 C 64.781,64.415 72.016,49.22 77.444,35.463 h 0.547 c -1.809,16.108 -2.356,32.572 -2.356,50.85 v 35.644 h 25.337 L 100.972,0 H 72.016 L 45.962,47.044 c -7.239,13.029 -15.2,28.771 -21.171,43.069 l -0.542,-0.181 c 0.723,-16.107 1.083,-33.298 1.083,-53.2 V 0 Z"
             style="fill:#d8dadc;fill-opacity:1;fill-rule:nonzero;stroke:none"
             id="path1304" /></g><g
           id="g1306"
           transform="translate(1222.6953,1475.4263)"><path
             d="m 0,0 h 27.322 v -53.922 h 0.546 c 2.713,4.707 5.611,9.048 8.322,13.39 L 63.874,0 H 97.713 L 57.361,-51.932 99.884,-121.957 H 67.674 L 37.819,-69.303 27.322,-82.147 v -39.81 H 0 Z"
             style="fill:#d8dadc;fill-opacity:1;fill-rule:nonzero;stroke:none"
             id="path1308" /></g></g></g><g
       id="g1310"><g
         id="g1312"
         clip-path="url(#clipPath1316)"><g
           id="g1318"><g
             id="g1320"><path
               d="m 1097.855,791.385 c 0,-12.044 9.766,-21.809 21.811,-21.809 v 0 c 12.046,0 21.81,9.765 21.81,21.809 v 0 c 0,12.047 -9.764,21.811 -21.81,21.811 v 0 c -12.045,0 -21.811,-9.764 -21.811,-21.811"
               style="fill:url(#radialGradient1328);stroke:none"
               id="path1330" /></g></g></g></g></g></svg>
