<?xml version="1.0" encoding="utf-8"?>
<!-- Generator: Adobe Illustrator 25.0.1, SVG Export Plug-In . SVG Version: 6.00 Build 0)  -->
<svg version="1.1" id="Layer_1" xmlns="http://www.w3.org/2000/svg" xmlns:xlink="http://www.w3.org/1999/xlink" x="0px" y="0px"
	 viewBox="0 0 100 100" style="enable-background:new 0 0 100 100;" xml:space="preserve">
<style type="text/css">
	.st0{opacity:0.2;fill:#008EFF;}
	.st1{fill:#008EFF;}
	.st2{fill:#FFFFFF;}
</style>
<path class="st0" d="M73.9,100H26.1C11.7,100,0,88.3,0,73.9V26.1C0,11.7,11.7,0,26.1,0h47.8C88.3,0,100,11.7,100,26.1v47.8
	C100,88.3,88.3,100,73.9,100z"/>
<path class="st1" d="M73.7,94.6H26.2c-11.5,0-20.8-9.3-20.8-20.8V26.2c0-11.5,9.3-20.8,20.8-20.8h47.5c11.5,0,20.8,9.3,20.8,20.8
	v47.5C94.5,85.3,85.2,94.6,73.7,94.6z"/>
<g>
	<path class="st2" d="M85.7,47.5c-0.1-2.6-1.3-5-3.3-6.8c-4-3.6-10.3-3.2-13.9,0.8L66.4,44c0,0,0,0,0,0L49.2,63.3
		c-0.3,0.3-0.5,0.8-0.6,1.2l-2.7,14c-0.2,0.9,0.1,1.7,0.8,2.3c0.5,0.4,1.1,0.6,1.7,0.6c0.2,0,0.5,0,0.7-0.1l13.6-4.2
		c0.4-0.1,0.8-0.4,1.1-0.7L81,57.1l2.2-2.4C84.9,52.7,85.8,50.2,85.7,47.5z M79.1,44.5c1,0.9,1.5,2,1.6,3.3c0.1,1.3-0.4,2.5-1.2,3.5
		L79,51.9l-7.2-6.4l0.5-0.6C74,42.9,77.1,42.7,79.1,44.5z M60.5,72.5l-8.9,2.8l1.7-9.2l15.1-16.9l7.2,6.4L60.5,72.5z"/>
	<path class="st2" d="M19.1,64c-0.6,0-1.2-0.2-1.7-0.7c-0.7-0.6-0.9-1.6-0.7-2.5l3.1-11.6V35c0-7.5,6.1-13.6,13.6-13.6h26.6
		c5.8,0,10.9,3.7,12.8,9.1c0.5,1.3-0.2,2.7-1.5,3.2c-1.3,0.5-2.7-0.2-3.2-1.5c-1.2-3.4-4.5-5.7-8.1-5.7H33.4c-4.7,0-8.6,3.8-8.6,8.6
		v14.6c0,0.2,0,0.4-0.1,0.7l-2,7.4l7.5-2.5c0.3-0.1,0.5-0.1,0.8-0.1h14.3c1.4,0,2.5,1.1,2.5,2.5s-1.1,2.5-2.5,2.5H31.5L20,63.8
		C19.7,63.9,19.4,64,19.1,64z"/>
	<circle class="st2" cx="35.4" cy="40.7" r="3"/>
	<circle class="st2" cx="46.8" cy="40.7" r="3"/>
	<circle class="st2" cx="58.1" cy="40.7" r="3"/>
</g>
</svg>
