<?xml version="1.0" encoding="utf-8"?>
<!-- Generator: Adobe Illustrator 25.0.1, SVG Export Plug-In . SVG Version: 6.00 Build 0)  -->
<svg version="1.1" id="Layer_1" xmlns="http://www.w3.org/2000/svg" xmlns:xlink="http://www.w3.org/1999/xlink" x="0px" y="0px"
	 viewBox="0 0 100 100" style="enable-background:new 0 0 100 100;" xml:space="preserve">
<style type="text/css">
	.st0{opacity:0.21;fill:#24D17A;enable-background:new    ;}
	.st1{fill:#24D17A;}
	.st2{fill:#FFFFFF;}
</style>
<path class="st0" d="M26.1,0h47.8C88.3,0,100,11.7,100,26.1v47.8c0,14.4-11.7,26.1-26.1,26.1H26.1C11.7,100,0,88.3,0,73.9V26.1
	C0,11.7,11.7,0,26.1,0z"/>
<path class="st1" d="M26.2,5.4h47.5c11.5,0,20.8,9.3,20.8,20.8v47.5c0,11.5-9.3,20.8-20.8,20.8H26.2c-11.5,0-20.8-9.3-20.8-20.8
	V26.2C5.4,14.7,14.7,5.4,26.2,5.4z"/>
<g>
	<path class="st2" d="M50,18C50,18,50,18,50,18C50,18,50,18,50,18C50,18,50,18,50,18c-11,0-19.8,8.9-19.8,19.8
		c0,5.5,2.8,10,5.5,14.3c2.5,3.9,4.8,7.6,4.8,11.6c0,1.4,1.1,2.5,2.5,2.5s2.5-1.1,2.5-2.5c0-5.5-2.8-10-5.5-14.3
		c-2.5-3.9-4.8-7.6-4.8-11.6C35.2,29.7,41.8,23,50,23c8.1,0,14.7,6.6,14.7,14.8c0,4-2.3,7.7-4.8,11.6c-2.7,4.3-5.6,8.8-5.6,14.3
		c0,1.4,1.1,2.5,2.5,2.5s2.5-1.1,2.5-2.5c0-4,2.3-7.7,4.8-11.6c2.7-4.3,5.6-8.8,5.6-14.3C69.7,26.9,60.9,18.1,50,18z"/>
	<path class="st2" d="M54,45.6c1.4,0,2.5-1,2.5-2.4c0,0,0-0.1,0-0.1c0.1-1,1.7-3.8,2.4-4.2c1.3-0.5,1.9-1.9,1.5-3.2
		c-0.5-1.3-1.9-1.9-3.2-1.5c-1,0.4-2,1.2-2.8,2.3c-0.2-0.3-0.4-0.6-0.7-0.8c-1.3-1.4-2.7-1.7-3.7-1.7c-1.9,0-3.4,1-4.5,2.5
		c-0.8-1.1-1.7-2-2.6-2.3c-1.3-0.5-2.7,0.1-3.3,1.4c-0.5,1.2,0,2.6,1.2,3.2c0.6,0.5,2.2,2.9,2.7,4.9c0.3,1.1,1.3,1.9,2.4,1.9
		c0.1,0,0.2,0,0.3,0c1.3-0.2,2.2-1.2,2.2-2.5c0-1.9,0.9-3.8,1.4-4.1c0.7,0.5,1.6,2.9,1.6,3.9c0,0,0,0.1,0,0.1
		C51.5,44.5,52.6,45.6,54,45.6z"/>
	<path class="st2" d="M56.9,69.1H43c-1.4,0-2.5,1.1-2.5,2.5s1.1,2.5,2.5,2.5h13.9c1.4,0,2.5-1.1,2.5-2.5S58.3,69.1,56.9,69.1z"/>
	<path class="st2" d="M53,77h-6.1c-1.4,0-2.5,1.1-2.5,2.5s1.1,2.5,2.5,2.5H53c1.4,0,2.5-1.1,2.5-2.5S54.4,77,53,77z"/>
</g>
</svg>
