<svg id="Layer_1" data-name="Layer 1" xmlns="http://www.w3.org/2000/svg" viewBox="0 0 128 104.03"><path d="M40.26,104C88.56,104,115,64,115,29.31c0-1.14,0-2.27-.07-3.4A53.11,53.11,0,0,0,128,12.31a52.32,52.32,0,0,1-15.08,4.14A26.4,26.4,0,0,0,124.47,1.92,52.73,52.73,0,0,1,107.79,8.3,26.28,26.28,0,0,0,63,32.25,74.56,74.56,0,0,1,8.91,4.81,26.27,26.27,0,0,0,17,39.87a26.17,26.17,0,0,1-11.9-3.29v.34A26.26,26.26,0,0,0,26.21,62.66a26.4,26.4,0,0,1-6.93.93,25.91,25.91,0,0,1-4.93-.48A26.28,26.28,0,0,0,38.88,81.35,52.66,52.66,0,0,1,6.26,92.59,54.09,54.09,0,0,1,0,92.23,74.33,74.33,0,0,0,40.26,104"/></svg>