<svg id="Layer_1" data-name="Layer 1" xmlns="http://www.w3.org/2000/svg" viewBox="0 0 100 100"><defs><style>.cls-1,.cls-2{fill:#ffa341;}.cls-1{opacity:0.21;}.cls-3{fill:#fff;}</style></defs><path class="cls-1" d="M34.07,12.22,2.58,65.86a18.55,18.55,0,0,0,16,27.94H81.4a18.55,18.55,0,0,0,16-27.9L66.09,12.25A18.55,18.55,0,0,0,34.07,12.22Z"/><path class="cls-2" d="M41.61,15.62,8.83,71.45a9.83,9.83,0,0,0,8.48,14.81H82.69a9.84,9.84,0,0,0,8.5-14.79L58.58,15.64A9.83,9.83,0,0,0,41.61,15.62Z"/><path class="cls-3" d="M50.11,78.19A4.88,4.88,0,1,1,55,73.32,4.87,4.87,0,0,1,50.11,78.19Zm0-5a.14.14,0,0,0-.14.14c0,.15.28.15.28,0A.14.14,0,0,0,50.11,73.18Z"/><path class="cls-3" d="M50.07,60.75a2.49,2.49,0,0,1-2.5-2.5V27.07a2.5,2.5,0,0,1,5,0V58.25A2.5,2.5,0,0,1,50.07,60.75Z"/></svg>